<svg xmlns="http://www.w3.org/2000/svg" viewBox="0 0 1200 900"><defs><style>.cls-1{fill:#82e485;}.cls-15,.cls-2{fill:#9ac12f;}.cls-10,.cls-11,.cls-14,.cls-16,.cls-2,.cls-23,.cls-24,.cls-28,.cls-29,.cls-3,.cls-30,.cls-31,.cls-36,.cls-4,.cls-5{stroke:#000;}.cls-10,.cls-11,.cls-14,.cls-16,.cls-2,.cls-23,.cls-24,.cls-25,.cls-26,.cls-27,.cls-28,.cls-29,.cls-3,.cls-30,.cls-31,.cls-36,.cls-4,.cls-5,.cls-6{stroke-linecap:round;stroke-linejoin:round;}.cls-3,.cls-9{fill:#cdf75d;}.cls-12,.cls-4{fill:#ffaa05;}.cls-6{fill:#2b7a55;stroke:#001e01;}.cls-28,.cls-7{fill:#c3f53c;}.cls-29,.cls-8{fill:#708d22;}.cls-10,.cls-11,.cls-25,.cls-27{fill:none;}.cls-11{stroke-dasharray:2.05 6.16;}.cls-13{fill:#c98604;}.cls-14,.cls-20{fill:#9ac12e;}.cls-16,.cls-19{fill:#57db5a;}.cls-17{fill:#2bd130;}.cls-18{fill:#009d04;}.cls-21,.cls-30{fill:#475916;}.cls-22{fill:#00371d;}.cls-23,.cls-32{fill:#fff;}.cls-24,.cls-34{fill:#adccbd;}.cls-25{stroke:#708d22;}.cls-26,.cls-27{stroke:#9ac12f;}.cls-31,.cls-33{fill:#e6eee2;}.cls-35{isolation:isolate;}.cls-36{fill:#e1ebdc;}</style></defs><g id="Layer_9" data-name="Layer 9"><rect class="cls-1" width="1200" height="900"/><path d="M614.43,242.43c4.08,2.34,4,6.17-.29,8.57s-11,2.44-15,.1-4-6.18.29-8.57S610.35,240.08,614.43,242.43Z"/><path d="M562.15,214.5c4.08,2.34,4,6.18-.29,8.57s-11,2.44-15.06.11-3.95-6.18.29-8.58S558.07,212.16,562.15,214.5Z"/><path d="M564.94,144.26v4.92c0,2.2-3.67,2.82-3.67,1.26v-5.39"/><path class="cls-2" d="M558.76,144.26a4.22,4.22,0,0,1,1.6-2.55l15.71-12.62h0a1.38,1.38,0,0,1,1.46-.14,4.64,4.64,0,0,1,2.62,3.24,1.52,1.52,0,0,1-.34,1.45h0l-17.63,14.12a2.22,2.22,0,0,1-1.81,0A3.49,3.49,0,0,1,558.76,144.26Z"/><path class="cls-2" d="M549,122.7H565.2v96.87h0a3.83,3.83,0,0,1-2.26,3.09,12.78,12.78,0,0,1-11.42-.07,4.37,4.37,0,0,1-2.45-3h0Z"/><path class="cls-3" d="M551.29,119.37c-3.1,1.77-3,4.68.21,6.5a12.79,12.79,0,0,0,11.42.08c3.1-1.78,3-4.69-.21-6.51A12.78,12.78,0,0,0,551.29,119.37Z"/><path d="M564.94,159.33v4.92c0,2.2-3.67,2.82-3.67,1.26v-5.39"/><path class="cls-2" d="M581.24,146.78l2.84,5.17-19.93,10.63a2.26,2.26,0,0,1-1.78-.37,3.47,3.47,0,0,1-.94-3.71c.31-1.27,1.72-2,2.05-2.22Z"/><path class="cls-3" d="M582.7,146.92c-1.11-.68-2-.14-2,1.21a4.66,4.66,0,0,0,2,3.66c1.11.68,2,.14,2-1.21A4.64,4.64,0,0,0,582.7,146.92Z"/><path d="M549.17,153.71v4.91c0,2.2,3.66,2.83,3.66,1.26v-5.39"/><path class="cls-2" d="M532.86,141.15,530,146.32,550,157a2.22,2.22,0,0,0,1.78-.37,3.47,3.47,0,0,0,.94-3.71c-.31-1.27-1.72-2-2-2.22Z"/><path class="cls-3" d="M531.4,141.29c1.11-.68,2-.13,2,1.21a4.66,4.66,0,0,1-2,3.67c-1.11.67-2,.13-2-1.22A4.66,4.66,0,0,1,531.4,141.29Z"/><path d="M549.17,178.87v4.92c0,2.2,3.66,2.82,3.66,1.25v-5.38"/><path class="cls-2" d="M532.86,166.32,530,171.49,550,182.11a2.24,2.24,0,0,0,1.78-.36,3.48,3.48,0,0,0,.94-3.72c-.31-1.27-1.72-2-2-2.21Z"/><path class="cls-3" d="M531.4,166.46c1.11-.68,2-.14,2,1.21a4.66,4.66,0,0,1-2,3.66c-1.11.68-2,.14-2-1.21A4.63,4.63,0,0,1,531.4,166.46Z"/><path d="M601.71,172.7v4.91c0,2.2,3.66,2.83,3.66,1.26v-5.39"/><path class="cls-2" d="M607.88,172.69a4.22,4.22,0,0,0-1.6-2.55l-15.71-12.61h0a1.35,1.35,0,0,0-1.46-.15,4.64,4.64,0,0,0-2.62,3.24,1.52,1.52,0,0,0,.34,1.45h0l17.63,14.12a2.22,2.22,0,0,0,1.81,0A3.48,3.48,0,0,0,607.88,172.69Z"/><path class="cls-2" d="M617.63,151.13H601.45V248h0a3.84,3.84,0,0,0,2.26,3.1,12.78,12.78,0,0,0,11.42-.08,4.37,4.37,0,0,0,2.45-3h0Z"/><path class="cls-3" d="M615.36,147.8c3.09,1.77,3,4.69-.22,6.5a12.75,12.75,0,0,1-11.42.08c-3.1-1.77-3-4.69.22-6.5A12.75,12.75,0,0,1,615.36,147.8Z"/><path d="M601.71,187.77v4.91c0,2.2,3.66,2.83,3.66,1.26v-5.39"/><path class="cls-2" d="M585.4,175.21l-2.84,5.17L602.49,191a2.22,2.22,0,0,0,1.78-.37,3.47,3.47,0,0,0,.94-3.71c-.31-1.27-1.72-2-2-2.22Z"/><path class="cls-3" d="M583.94,175.35c1.11-.68,2-.13,2,1.21a4.66,4.66,0,0,1-2,3.67c-1.11.67-2,.13-2-1.22A4.66,4.66,0,0,1,583.94,175.35Z"/><path d="M617.48,182.14v4.92c0,2.19-3.67,2.82-3.67,1.25v-5.39"/><path class="cls-2" d="M633.78,169.58l2.84,5.17-19.93,10.63a2.24,2.24,0,0,1-1.78-.36,3.49,3.49,0,0,1-.94-3.72c.31-1.27,1.72-2,2-2.21Z"/><path class="cls-3" d="M635.24,169.72c-1.11-.67-2-.13-2,1.22a4.69,4.69,0,0,0,2,3.66c1.11.67,2,.13,2-1.21A4.66,4.66,0,0,0,635.24,169.72Z"/><path d="M617.48,214.45v4.92c0,2.19-3.67,2.82-3.67,1.25v-5.38"/><path class="cls-2" d="M633.78,201.9l2.84,5.17-19.93,10.62a2.24,2.24,0,0,1-1.78-.36,3.49,3.49,0,0,1-.94-3.72c.31-1.27,1.72-2,2-2.21Z"/><path class="cls-3" d="M635.24,202c-1.11-.68-2-.14-2,1.21a4.69,4.69,0,0,0,2,3.66c1.11.68,2,.14,2-1.21A4.63,4.63,0,0,0,635.24,202Z"/><path d="M669.76,270.72c4.08,2.34,4,6.18-.28,8.58s-11,2.44-15.06.1-3.95-6.18.29-8.57S665.68,268.38,669.76,270.72Z"/><path class="cls-2" d="M672.89,179.85H656.71v96.87h0a3.85,3.85,0,0,0,2.25,3.1,12.78,12.78,0,0,0,11.42-.08,4.36,4.36,0,0,0,2.46-3h0Z"/><path class="cls-3" d="M670.62,176.52c3.1,1.78,3,4.69-.22,6.51a12.78,12.78,0,0,1-11.42.07c-3.09-1.77-3-4.68.22-6.5A12.75,12.75,0,0,1,670.62,176.52Z"/><path d="M657,241v4.91c0,2.2,3.66,2.83,3.66,1.26v-5.39"/><path class="cls-2" d="M640.67,228.44l-2.84,5.17,19.92,10.63a2.22,2.22,0,0,0,1.78-.37,3.47,3.47,0,0,0,1-3.71c-.32-1.27-1.72-2-2.05-2.22Z"/><path class="cls-3" d="M639.2,228.58c1.11-.67,2-.13,2,1.21a4.66,4.66,0,0,1-2,3.67c-1.11.67-2,.13-2-1.22A4.69,4.69,0,0,1,639.2,228.58Z"/><path d="M657,202v4.91c0,2.2,3.66,2.83,3.66,1.26V202.8"/><path class="cls-2" d="M640.67,189.46l-2.84,5.17,19.92,10.63a2.22,2.22,0,0,0,1.78-.37,3.47,3.47,0,0,0,1-3.71c-.32-1.27-1.72-2-2.05-2.22Z"/><path class="cls-3" d="M639.2,189.6c1.11-.67,2-.13,2,1.21a4.66,4.66,0,0,1-2,3.67c-1.11.67-2,.13-2-1.22A4.69,4.69,0,0,1,639.2,189.6Z"/><path d="M672.74,221.12V226c0,2.2-3.66,2.83-3.66,1.26v-5.39"/><path class="cls-2" d="M689,208.57l2.84,5.17L672,224.37a2.26,2.26,0,0,1-1.78-.37,3.45,3.45,0,0,1-.94-3.71c.31-1.27,1.72-2,2-2.22Z"/><path class="cls-3" d="M690.51,208.71c-1.11-.68-2-.13-2,1.21a4.63,4.63,0,0,0,2,3.66c1.11.68,2,.14,2-1.21A4.69,4.69,0,0,0,690.51,208.71Z"/><circle class="cls-4" cx="637.83" cy="231.02" r="5.92"/><circle class="cls-4" cx="635.21" cy="172.16" r="5.92"/><circle class="cls-4" cx="531.43" cy="143.07" r="5.92"/><ellipse class="cls-5" cx="443.77" cy="269.38" rx="18.73" ry="9.32"/><path class="cls-4" d="M465.5,268.93c0-9.17-8.39-16.6-18.73-16.6S428,259.76,428,268.93v.45c0,5.15,8.38,9.32,18.73,9.32s18.73-4.17,18.73-9.32Z"/><path class="cls-6" d="M447.51,255.31s-2.17-30.41,8.46-45.49l-1.52-1.51s-13.5,13.55-10.9,47.16C443.55,255.47,445.39,258,447.51,255.31Z"/><path class="cls-6" d="M441.18,202.51S440,209.77,442.41,214a24.41,24.41,0,0,0,6.78,7.1s.54-7.1-.49-10.14S441.18,202.51,441.18,202.51Z"/><ellipse class="cls-5" cx="481.85" cy="250.28" rx="18.73" ry="9.32"/><path class="cls-4" d="M465.57,249.83c0-9.17,8.39-16.6,18.73-16.6S503,240.66,503,249.83v.45c0,5.15-8.39,9.32-18.73,9.32s-18.73-4.17-18.73-9.32Z"/><path class="cls-6" d="M484.11,236.21s2.17-30.42-8.46-45.49l1.52-1.52s13.5,13.56,10.9,47.17C488.07,236.37,486.22,238.87,484.11,236.21Z"/><path class="cls-6" d="M505.51,209.52s-5.06,5.36-9.91,6a24.36,24.36,0,0,1-9.75-1.12s5.33-4.72,8.38-5.73S505.51,209.52,505.51,209.52Z"/><path class="cls-6" d="M481,200.77s-5.06,5.36-9.91,6a24.57,24.57,0,0,1-9.75-1.12s5.33-4.72,8.37-5.73S481,200.77,481,200.77Z"/><ellipse class="cls-5" cx="483.71" cy="287.64" rx="18.73" ry="9.32"/><path class="cls-4" d="M506,287.73c0-9.17-8.39-16.6-18.73-16.6s-18.73,7.43-18.73,16.6v.45c0,5.15,8.39,9.32,18.73,9.32S506,293.33,506,288.18Z"/><path class="cls-6" d="M488.59,274.65s-2.17-30.42,8.46-45.49l-1.52-1.52s-13.5,13.55-10.9,47.17C484.63,274.81,486.48,277.3,488.59,274.65Z"/><path class="cls-6" d="M469.12,242.51s3.24,6.62,7.69,8.64a24.39,24.39,0,0,0,9.64,1.83s-3.69-6.09-6.29-8S469.12,242.51,469.12,242.51Z"/><ellipse class="cls-5" cx="521.88" cy="267.89" rx="18.73" ry="9.32"/><path class="cls-4" d="M543.61,267.44c0-9.17-8.39-16.6-18.73-16.6s-18.73,7.43-18.73,16.6v.45c0,5.15,8.38,9.32,18.73,9.32s18.73-4.17,18.73-9.32Z"/><path class="cls-6" d="M525.62,253.82s-2.17-30.41,8.46-45.49l-1.52-1.52s-13.5,13.56-10.9,47.17C521.66,254,523.5,256.48,525.62,253.82Z"/><path class="cls-6" d="M526.26,225.9s5,5.35,9.9,6a24.45,24.45,0,0,0,9.75-1.11s-5.33-4.72-8.37-5.74S526.26,225.9,526.26,225.9Z"/><ellipse class="cls-5" cx="523.36" cy="308.53" rx="18.73" ry="9.32"/><path class="cls-4" d="M545.09,308.08c0-9.17-8.39-16.6-18.73-16.6s-18.73,7.43-18.73,16.6v.45c0,5.15,8.39,9.32,18.73,9.32s18.73-4.17,18.73-9.32Z"/><path class="cls-6" d="M527.1,294.46s-2.17-30.41,8.46-45.49L534,247.46s-13.5,13.55-10.9,47.16C523.14,294.62,525,297.12,527.1,294.46Z"/><path class="cls-6" d="M527.7,266.5s7.27,1.19,11.49-1.27a24.42,24.42,0,0,0,7.08-6.8s-7.11-.52-10.14.53S527.7,266.5,527.7,266.5Z"/><ellipse class="cls-5" cx="561.44" cy="289.43" rx="18.73" ry="9.32"/><path class="cls-4" d="M545.16,289c0-9.17,8.39-16.6,18.73-16.6s18.73,7.43,18.73,16.6v.45c0,5.15-8.39,9.32-18.73,9.32s-18.73-4.17-18.73-9.32Z"/><path class="cls-6" d="M563.7,275.36s2.17-30.42-8.46-45.49l1.52-1.52s13.5,13.56,10.9,47.17C567.66,275.52,565.81,278,563.7,275.36Z"/><path class="cls-6" d="M585.1,248.67s-5.06,5.36-9.91,6a24.36,24.36,0,0,1-9.75-1.12s5.33-4.72,8.38-5.73S585.1,248.67,585.1,248.67Z"/><path class="cls-6" d="M561.62,239.92s-5.06,5.36-9.91,6a24.57,24.57,0,0,1-9.75-1.12s5.33-4.72,8.37-5.73S561.62,239.92,561.62,239.92Z"/><ellipse class="cls-5" cx="563.3" cy="326.79" rx="18.73" ry="9.32"/><path class="cls-4" d="M585.63,326.88c0-9.17-8.39-16.6-18.73-16.6s-18.73,7.43-18.73,16.6v.45c0,5.15,8.39,9.32,18.73,9.32s18.73-4.17,18.73-9.32Z"/><path class="cls-6" d="M568.18,313.8s-2.17-30.42,8.46-45.49l-1.52-1.52s-13.5,13.55-10.9,47.17C564.22,314,566.07,316.45,568.18,313.8Z"/><path class="cls-6" d="M548.71,283.08s3.24,6.62,7.69,8.64a24.39,24.39,0,0,0,9.64,1.83s-3.69-6.09-6.29-8S548.71,283.08,548.71,283.08Z"/><ellipse class="cls-5" cx="601.47" cy="307.04" rx="18.73" ry="9.32"/><path class="cls-4" d="M623.2,306.59c0-9.17-8.39-16.6-18.73-16.6s-18.73,7.43-18.73,16.6V307c0,5.15,8.39,9.32,18.73,9.32s18.73-4.17,18.73-9.32Z"/><path class="cls-6" d="M605.21,293s-2.17-30.42,8.46-45.49L612.15,246s-13.5,13.56-10.9,47.17C601.25,293.13,603.09,295.63,605.21,293Z"/><path class="cls-6" d="M605.85,265.05s5,5.35,9.9,6a24.45,24.45,0,0,0,9.75-1.11s-5.33-4.72-8.37-5.74S605.85,265.05,605.85,265.05Z"/><polyline class="cls-7" points="887.89 368.87 887.89 381.9 756.36 451.8 756.36 438.77"/><polyline class="cls-8" points="591.16 350.38 591.16 363.41 756.36 450.75 756.36 416.62"/><polygon class="cls-9" points="887.89 367.87 756.36 437.76 591.16 350.43 722.69 280.53 887.89 367.87"/><path class="cls-10" d="M887.85,367.84,722.69,280.53,591.22,350.4l-.06,0v13l165.2,87.33,131.53-69.89v-13Z"/><line class="cls-11" x1="698.3" y1="294.14" x2="860.76" y2="381.39"/><line class="cls-11" x1="672.64" y1="307.8" x2="835.09" y2="395.06"/><line class="cls-11" x1="646.62" y1="321.48" x2="809.08" y2="408.73"/><line class="cls-11" x1="620.78" y1="335.37" x2="783.23" y2="422.63"/><path class="cls-12" d="M755.34,403.08c.75-9,3.15-10.12,3.75-10.12s3,1.1,3.75,10.12a42.77,42.77,0,0,1,0,9.12,7.3,7.3,0,0,0-3.93,2.2c-.49-2.25-1.89-2.19-3.78-3.24C755.06,409.36,755.15,405.36,755.34,403.08Z"/><path class="cls-13" d="M759,405.36c.39-9,1.65-10.13,2-10.13s1.58,1.11,2,10.13a82.59,82.59,0,0,1,0,9.11,4.19,4.19,0,0,0-2.07,2.2c-.26-2.25-1-2.18-2-3.24C758.86,411.63,758.91,407.64,759,405.36Z"/><polygon class="cls-5" points="758.88 414.98 768.24 419.19 765.11 413.1 758.88 414.98"/><path class="cls-14" d="M758.88,414.89s-.16-2.89,6.55-3.45c0,0,5.48.56,7.77,5.22C773.2,416.66,763.45,413.49,758.88,414.89Z"/><path class="cls-10" d="M763.07,408.7c0,.83-1.76,1.49-3.88,1.49s-4.08-.66-4.08-1.49"/><path class="cls-10" d="M762.76,402.92c0,.77-1.6,1.39-3.57,1.39s-3.83-.62-3.83-1.39"/><path class="cls-10" d="M762,397.71c0,.62-1.16,1.13-2.77,1.13s-2.92-.51-2.92-1.13"/><path class="cls-10" d="M755.34,403.08c.75-9,3.15-10.12,3.75-10.12s3,1.1,3.75,10.12a39.78,39.78,0,0,1,0,8.75,8.06,8.06,0,0,0-4,2.57c-.49-2.25-1.89-2.19-3.78-3.24C755.06,409.36,755.15,405.36,755.34,403.08Z"/><path class="cls-12" d="M677,362.16c.75-9,3.15-10.13,3.75-10.13s3,1.11,3.75,10.13a42.67,42.67,0,0,1,0,9.11,7.3,7.3,0,0,0-3.93,2.2c-.49-2.24-1.9-2.18-3.78-3.23C676.75,368.43,676.84,364.44,677,362.16Z"/><path class="cls-13" d="M680.7,364.43c.39-9,1.65-10.13,2-10.13s1.58,1.11,2,10.13a82.8,82.8,0,0,1,0,9.12,4.16,4.16,0,0,0-2.07,2.19c-.26-2.24-1-2.18-2-3.23C680.55,370.71,680.6,366.71,680.7,364.43Z"/><polygon class="cls-5" points="680.57 374.05 689.93 378.26 686.8 372.17 680.57 374.05"/><path class="cls-14" d="M680.57,374s-.16-2.88,6.55-3.44c0,0,5.47.56,7.77,5.21C694.89,375.73,685.14,372.56,680.57,374Z"/><path class="cls-10" d="M684.76,367.78c0,.82-1.76,1.49-3.89,1.49s-4.07-.67-4.07-1.49"/><path class="cls-10" d="M684.45,362c0,.77-1.6,1.39-3.58,1.39s-3.82-.62-3.82-1.39"/><path class="cls-10" d="M683.65,356.78c0,.62-1.17,1.13-2.78,1.13s-2.91-.51-2.91-1.13"/><path class="cls-10" d="M677,362.16c.75-9,3.15-10.13,3.75-10.13s3,1.11,3.75,10.13a39.69,39.69,0,0,1,0,8.74,8,8,0,0,0-4,2.57c-.49-2.24-1.9-2.18-3.78-3.23C676.75,368.43,676.84,364.44,677,362.16Z"/><path class="cls-12" d="M639.52,337.68c.75-9,3.15-10.13,3.75-10.13s3,1.11,3.75,10.13a44,44,0,0,1,0,9.11,7.32,7.32,0,0,0-3.94,2.2c-.49-2.24-1.89-2.18-3.77-3.23C639.24,344,639.33,340,639.52,337.68Z"/><path class="cls-13" d="M643.18,340c.39-9,1.66-10.13,2-10.13s1.58,1.11,2,10.13a80,80,0,0,1,0,9.12,4.15,4.15,0,0,0-2.06,2.19c-.26-2.24-1-2.18-2-3.23C643,346.23,643.08,342.23,643.18,340Z"/><polygon class="cls-5" points="643.05 349.57 652.41 353.78 649.29 347.69 643.05 349.57"/><path class="cls-14" d="M643.05,349.48s-.15-2.88,6.56-3.44c0,0,5.47.56,7.77,5.21C657.38,351.25,647.63,348.08,643.05,349.48Z"/><path class="cls-10" d="M647.24,343.3c0,.82-1.76,1.49-3.88,1.49s-4.08-.67-4.08-1.49"/><path class="cls-10" d="M646.94,337.51c0,.77-1.61,1.39-3.58,1.39s-3.83-.62-3.83-1.39"/><path class="cls-10" d="M646.13,332.3c0,.62-1.16,1.13-2.77,1.13s-2.92-.51-2.92-1.13"/><path class="cls-10" d="M639.52,337.68c.75-9,3.15-10.13,3.75-10.13s3,1.11,3.75,10.13a40.33,40.33,0,0,1,0,8.75,8,8,0,0,0-4,2.56c-.49-2.24-1.89-2.18-3.77-3.23C639.24,344,639.33,340,639.52,337.68Z"/><path class="cls-12" d="M729.36,299.91c-.75-9-3.15-10.12-3.75-10.12s-3,1.1-3.75,10.12a42.77,42.77,0,0,0,0,9.12,7.3,7.3,0,0,1,3.93,2.2c.49-2.25,1.89-2.19,3.78-3.24C729.64,306.19,729.55,302.19,729.36,299.91Z"/><path class="cls-13" d="M729.59,308c0-1.91-.06-4.24-.13-5.79-.06-1.39-.14-2.58-.23-3.62a23.2,23.2,0,0,0-1.41-6.27c-.14-.18-.26-.24-.33-.24-.32,0-1.58,1.11-2,10.13a84.49,84.49,0,0,0,0,8.74q.15.13.3.3c.49-2.25,1.89-2.19,3.78-3.24Z"/><polygon class="cls-5" points="725.82 311.81 716.46 316.02 719.59 309.93 725.82 311.81"/><path class="cls-14" d="M725.82,311.72s.16-2.89-6.55-3.45c0,0-5.48.56-7.77,5.22C711.5,313.49,721.25,310.32,725.82,311.72Z"/><path class="cls-10" d="M721.63,305.53c0,.83,1.76,1.49,3.88,1.49s4.08-.66,4.08-1.49"/><path class="cls-10" d="M721.94,299.75c0,.77,1.6,1.39,3.57,1.39s3.83-.62,3.83-1.39"/><path class="cls-10" d="M722.74,294.54c0,.62,1.16,1.13,2.77,1.13s2.92-.51,2.92-1.13"/><path class="cls-10" d="M729.36,299.91c-.75-9-3.15-10.12-3.75-10.12s-3,1.1-3.75,10.12a39.08,39.08,0,0,0,.08,8.78,7.64,7.64,0,0,1,3.87,2.54c.49-2.25,1.89-2.19,3.78-3.24C729.64,306.19,729.55,302.19,729.36,299.91Z"/><path class="cls-12" d="M808.06,374c.75-9,3.15-10.13,3.75-10.13s3,1.11,3.75,10.13a42.67,42.67,0,0,1,0,9.11,7.33,7.33,0,0,0-3.93,2.2c-.49-2.24-1.89-2.18-3.78-3.23C807.78,380.23,807.87,376.23,808.06,374Z"/><path class="cls-13" d="M811.73,376.22c.39-9,1.65-10.13,2-10.13s1.58,1.11,2,10.13a82.8,82.8,0,0,1,0,9.12,4.16,4.16,0,0,0-2.07,2.19c-.26-2.24-1-2.18-2-3.23C811.58,382.5,811.63,378.5,811.73,376.22Z"/><polygon class="cls-5" points="811.6 385.85 820.96 390.05 817.83 383.96 811.6 385.85"/><path class="cls-14" d="M811.6,385.75s-.16-2.88,6.55-3.44c0,0,5.48.56,7.77,5.21C825.92,387.52,816.17,384.36,811.6,385.75Z"/><path class="cls-10" d="M815.79,379.57c0,.82-1.76,1.49-3.88,1.49s-4.08-.67-4.08-1.49"/><path class="cls-10" d="M815.48,373.78c0,.77-1.6,1.39-3.57,1.39s-3.83-.62-3.83-1.39"/><path class="cls-10" d="M814.68,368.57c0,.63-1.16,1.13-2.77,1.13s-2.92-.5-2.92-1.13"/><path class="cls-10" d="M808.06,374c.75-9,3.15-10.13,3.75-10.13s3,1.11,3.75,10.13a39.79,39.79,0,0,1,0,8.75,8,8,0,0,0-4,2.56c-.49-2.24-1.89-2.18-3.78-3.23C807.78,380.23,807.87,376.23,808.06,374Z"/><path class="cls-12" d="M783.63,390c.75-9,3.15-10.13,3.75-10.13s3,1.11,3.75,10.13a42.67,42.67,0,0,1,0,9.11,7.26,7.26,0,0,0-3.93,2.2c-.49-2.24-1.9-2.18-3.78-3.23C783.35,396.25,783.44,392.25,783.63,390Z"/><path class="cls-13" d="M787.29,392.24c.4-9,1.66-10.13,2-10.13s1.57,1.11,2,10.13a82.8,82.8,0,0,1,0,9.12,4.16,4.16,0,0,0-2.07,2.19c-.26-2.24-1-2.18-2-3.23C787.15,398.52,787.19,394.52,787.29,392.24Z"/><polygon class="cls-5" points="787.17 401.87 796.53 406.07 793.4 399.98 787.17 401.87"/><path class="cls-14" d="M787.17,401.77s-.16-2.88,6.55-3.44c0,0,5.47.56,7.77,5.21C801.49,403.54,791.74,400.38,787.17,401.77Z"/><path class="cls-10" d="M791.36,395.59c0,.82-1.76,1.49-3.89,1.49s-4.07-.67-4.07-1.49"/><path class="cls-10" d="M791.05,389.8c0,.77-1.6,1.39-3.58,1.39s-3.83-.62-3.83-1.39"/><path class="cls-10" d="M790.25,384.59c0,.63-1.17,1.13-2.78,1.13s-2.91-.5-2.91-1.13"/><path class="cls-10" d="M783.63,390c.75-9,3.15-10.13,3.75-10.13s3,1.11,3.75,10.13a39.79,39.79,0,0,1,0,8.75,7.93,7.93,0,0,0-4,2.56c-.49-2.24-1.9-2.18-3.78-3.23C783.35,396.25,783.44,392.25,783.63,390Z"/><path class="cls-12" d="M793.22,336.55c.76-9,3.16-10.13,3.76-10.13s3,1.11,3.75,10.13a43.25,43.25,0,0,1,0,9.11,7.33,7.33,0,0,0-3.93,2.2c-.49-2.24-1.89-2.18-3.77-3.23C793,342.82,793,338.83,793.22,336.55Z"/><path class="cls-13" d="M796.89,338.82c.39-9,1.66-10.13,2-10.13s1.58,1.11,2,10.13a82.8,82.8,0,0,1,0,9.12,4.16,4.16,0,0,0-2.07,2.19c-.25-2.24-1-2.18-2-3.23C796.74,345.1,796.79,341.1,796.89,338.82Z"/><polygon class="cls-5" points="796.76 348.44 806.12 352.65 803 346.56 796.76 348.44"/><path class="cls-14" d="M796.76,348.35s-.16-2.88,6.55-3.44c0,0,5.48.56,7.77,5.21C811.08,350.12,801.33,347,796.76,348.35Z"/><path class="cls-10" d="M801,342.17c0,.82-1.76,1.49-3.88,1.49S793,343,793,342.17"/><path class="cls-10" d="M800.64,336.38c0,.77-1.6,1.39-3.57,1.39s-3.83-.62-3.83-1.39"/><path class="cls-10" d="M799.84,331.17c0,.62-1.16,1.13-2.77,1.13s-2.92-.51-2.92-1.13"/><path class="cls-10" d="M793.22,336.55c.76-9,3.16-10.13,3.76-10.13s3,1.11,3.75,10.13a40.23,40.23,0,0,1,0,8.74,8.1,8.1,0,0,0-4,2.57c-.49-2.24-1.89-2.18-3.77-3.23C793,342.82,793,338.83,793.22,336.55Z"/><path class="cls-12" d="M756.25,316.41c.75-9,3.15-10.13,3.75-10.13s3,1.11,3.75,10.13a42.67,42.67,0,0,1,0,9.11,7.32,7.32,0,0,0-3.94,2.2c-.48-2.25-1.89-2.19-3.77-3.24C756,322.68,756.06,318.69,756.25,316.41Z"/><path class="cls-13" d="M759.91,318.68c.4-9,1.66-10.13,2-10.13s1.57,1.11,2,10.13a82.8,82.8,0,0,1,0,9.12,4.12,4.12,0,0,0-2.07,2.19c-.26-2.24-1-2.18-2-3.23C759.77,325,759.81,321,759.91,318.68Z"/><polygon class="cls-5" points="759.78 328.3 769.14 332.51 766.02 326.42 759.78 328.3"/><path class="cls-14" d="M759.79,328.21s-.16-2.89,6.55-3.44c0,0,5.47.55,7.77,5.21C774.11,330,764.36,326.81,759.79,328.21Z"/><path class="cls-10" d="M764,322c0,.83-1.77,1.5-3.89,1.5S756,322.85,756,322"/><path class="cls-10" d="M763.67,316.24c0,.77-1.6,1.39-3.58,1.39s-3.83-.62-3.83-1.39"/><path class="cls-10" d="M762.86,311c0,.62-1.16,1.13-2.77,1.13s-2.91-.51-2.91-1.13"/><path class="cls-10" d="M756.25,316.41c.75-9,3.15-10.13,3.75-10.13s3,1.11,3.75,10.13a39.69,39.69,0,0,1,0,8.74,8.09,8.09,0,0,0-4,2.57c-.48-2.25-1.89-2.19-3.77-3.24C756,322.68,756.06,318.69,756.25,316.41Z"/><path class="cls-12" d="M691.82,312.28c.75-9,3.15-10.12,3.75-10.12s3,1.1,3.75,10.12a42.77,42.77,0,0,1,0,9.12,7.26,7.26,0,0,0-3.93,2.2c-.49-2.25-1.9-2.19-3.78-3.24C691.54,318.56,691.63,314.56,691.82,312.28Z"/><path class="cls-13" d="M695.48,314.56c.4-9,1.66-10.13,2-10.13s1.57,1.11,2,10.13a82.59,82.59,0,0,1,0,9.11,4.15,4.15,0,0,0-2.07,2.2c-.26-2.24-1-2.18-2-3.23C695.34,320.83,695.38,316.84,695.48,314.56Z"/><polygon class="cls-5" points="695.36 324.18 704.72 328.39 701.59 322.3 695.36 324.18"/><path class="cls-14" d="M695.36,324.09s-.16-2.89,6.55-3.45c0,0,5.47.56,7.77,5.22C709.68,325.86,699.93,322.69,695.36,324.09Z"/><path class="cls-10" d="M699.55,317.9c0,.83-1.77,1.49-3.89,1.49s-4.07-.66-4.07-1.49"/><path class="cls-10" d="M699.24,312.12c0,.77-1.6,1.39-3.58,1.39s-3.83-.62-3.83-1.39"/><path class="cls-10" d="M698.44,306.91c0,.62-1.17,1.13-2.78,1.13s-2.91-.51-2.91-1.13"/><path class="cls-10" d="M691.82,312.28c.75-9,3.15-10.12,3.75-10.12s3,1.1,3.75,10.12a39.78,39.78,0,0,1,0,8.75,8,8,0,0,0-4,2.57c-.49-2.25-1.9-2.19-3.78-3.24C691.54,318.56,691.63,314.56,691.82,312.28Z"/><path class="cls-12" d="M740.37,333.72c-.75-9-3.15-10.13-3.75-10.13s-3,1.11-3.75,10.13a43.45,43.45,0,0,0,0,9.12,7.31,7.31,0,0,1,3.94,2.19c.49-2.24,1.89-2.18,3.77-3.23C740.65,340,740.56,336,740.37,333.72Z"/><path class="cls-13" d="M740.6,341.79c0-1.91-.05-4.25-.12-5.8-.06-1.38-.14-2.57-.24-3.61a23.18,23.18,0,0,0-1.4-6.27c-.15-.19-.26-.24-.33-.24-.32,0-1.58,1.1-2,10.12a84.46,84.46,0,0,0,0,8.74l.31.3c.49-2.24,1.89-2.18,3.77-3.23Z"/><polygon class="cls-5" points="736.84 345.62 727.48 349.82 730.6 343.73 736.84 345.62"/><path class="cls-14" d="M736.84,345.52s.15-2.88-6.56-3.44c0,0-5.47.56-7.77,5.22C722.51,347.3,732.26,344.13,736.84,345.52Z"/><path class="cls-10" d="M732.64,339.34c0,.82,1.77,1.49,3.89,1.49s4.08-.67,4.08-1.49"/><path class="cls-10" d="M733,333.56c0,.76,1.61,1.38,3.58,1.38s3.83-.62,3.83-1.38"/><path class="cls-10" d="M733.76,328.34c0,.63,1.16,1.13,2.77,1.13s2.92-.5,2.92-1.13"/><path class="cls-10" d="M740.37,333.72c-.75-9-3.15-10.13-3.75-10.13s-3,1.11-3.75,10.13a39.59,39.59,0,0,0,.08,8.77,7.8,7.8,0,0,1,3.88,2.54c.49-2.24,1.89-2.18,3.77-3.23C740.65,340,740.56,336,740.37,333.72Z"/><path class="cls-12" d="M715.33,347.39c-.75-9-3.15-10.13-3.75-10.13s-3,1.11-3.75,10.13a42.78,42.78,0,0,0,0,9.12,7.28,7.28,0,0,1,3.93,2.19c.49-2.24,1.89-2.18,3.78-3.23C715.61,353.67,715.52,349.67,715.33,347.39Z"/><path class="cls-13" d="M715.56,355.46c0-1.91-.06-4.25-.13-5.8-.06-1.38-.14-2.57-.23-3.61a23.1,23.1,0,0,0-1.41-6.27c-.14-.19-.26-.24-.33-.24-.32,0-1.58,1.1-2,10.12a84.46,84.46,0,0,0,0,8.74l.3.3c.49-2.24,1.89-2.18,3.78-3.23Z"/><polygon class="cls-5" points="711.79 359.29 702.43 363.49 705.56 357.4 711.79 359.29"/><path class="cls-14" d="M711.79,359.19s.16-2.88-6.55-3.44c0,0-5.48.56-7.77,5.21C697.47,361,707.22,357.8,711.79,359.19Z"/><path class="cls-10" d="M707.6,353c0,.82,1.76,1.49,3.88,1.49s4.08-.67,4.08-1.49"/><path class="cls-10" d="M707.91,347.23c0,.76,1.6,1.38,3.57,1.38s3.83-.62,3.83-1.38"/><path class="cls-10" d="M708.71,342c0,.63,1.16,1.13,2.77,1.13s2.92-.5,2.92-1.13"/><path class="cls-10" d="M715.33,347.39c-.75-9-3.15-10.13-3.75-10.13s-3,1.11-3.75,10.13a39,39,0,0,0,.08,8.77,7.77,7.77,0,0,1,3.87,2.54c.49-2.24,1.89-2.18,3.78-3.23C715.61,353.67,715.52,349.67,715.33,347.39Z"/><path class="cls-12" d="M676.42,327c-.75-9-3.15-10.12-3.75-10.12s-3,1.1-3.75,10.12a42.77,42.77,0,0,0,0,9.12,7.26,7.26,0,0,1,3.93,2.2c.49-2.25,1.9-2.19,3.78-3.24C676.7,333.27,676.61,329.27,676.42,327Z"/><path class="cls-13" d="M676.65,335.06c0-1.91-.06-4.25-.13-5.79-.06-1.39-.14-2.58-.23-3.62a22.82,22.82,0,0,0-1.41-6.27c-.14-.19-.26-.24-.33-.24-.31,0-1.58,1.11-2,10.13a84.28,84.28,0,0,0,0,8.73c.1.1.21.2.3.31.49-2.25,1.9-2.19,3.78-3.24Z"/><polygon class="cls-5" points="672.88 338.89 663.52 343.1 666.65 337.01 672.88 338.89"/><path class="cls-14" d="M672.88,338.8s.16-2.89-6.55-3.45c0,0-5.47.56-7.77,5.22C658.56,340.57,668.31,337.4,672.88,338.8Z"/><path class="cls-10" d="M668.69,332.61c0,.83,1.76,1.49,3.89,1.49s4.07-.66,4.07-1.49"/><path class="cls-10" d="M669,326.83c0,.76,1.6,1.39,3.58,1.39s3.83-.63,3.83-1.39"/><path class="cls-10" d="M669.8,321.62c0,.62,1.17,1.13,2.78,1.13s2.91-.51,2.91-1.13"/><path class="cls-10" d="M676.42,327c-.75-9-3.15-10.12-3.75-10.12s-3,1.1-3.75,10.12a39.08,39.08,0,0,0,.08,8.78,7.6,7.6,0,0,1,3.87,2.54c.49-2.25,1.9-2.19,3.78-3.24C676.7,333.27,676.61,329.27,676.42,327Z"/><path class="cls-12" d="M775.51,352.76c-.75-9-3.15-10.13-3.75-10.13s-3,1.11-3.75,10.13a42.77,42.77,0,0,0,0,9.12,7.26,7.26,0,0,1,3.93,2.2c.49-2.25,1.9-2.19,3.78-3.24C775.79,359,775.7,355,775.51,352.76Z"/><path class="cls-13" d="M775.74,360.83c0-1.91-.06-4.25-.13-5.79s-.14-2.58-.23-3.62a22.72,22.72,0,0,0-1.41-6.27c-.14-.19-.26-.24-.33-.24-.31,0-1.58,1.11-2,10.13a84.28,84.28,0,0,0,0,8.73c.1.1.21.2.3.31.49-2.25,1.9-2.19,3.78-3.24Z"/><polygon class="cls-5" points="771.97 364.66 762.61 368.87 765.74 362.78 771.97 364.66"/><path class="cls-14" d="M772,364.57s.16-2.89-6.55-3.45c0,0-5.47.56-7.77,5.22C757.65,366.34,767.4,363.17,772,364.57Z"/><path class="cls-10" d="M767.78,358.38c0,.82,1.76,1.49,3.89,1.49s4.07-.67,4.07-1.49"/><path class="cls-10" d="M768.09,352.6c0,.76,1.6,1.39,3.58,1.39s3.83-.63,3.83-1.39"/><path class="cls-10" d="M768.89,347.38c0,.63,1.17,1.14,2.78,1.14s2.91-.51,2.91-1.14"/><path class="cls-10" d="M775.51,352.76c-.75-9-3.15-10.13-3.75-10.13s-3,1.11-3.75,10.13a39.08,39.08,0,0,0,.08,8.78,7.6,7.6,0,0,1,3.87,2.54c.49-2.25,1.9-2.19,3.78-3.24C775.79,359,775.7,355,775.51,352.76Z"/><path class="cls-12" d="M845.72,362.12C845,353.1,842.57,352,842,352s-3,1.11-3.75,10.13a43.34,43.34,0,0,0,0,9.11,7.32,7.32,0,0,1,3.94,2.2c.49-2.24,1.89-2.18,3.77-3.24C846,368.39,845.91,364.4,845.72,362.12Z"/><path class="cls-13" d="M846,370.18c0-1.9-.05-4.24-.12-5.79-.06-1.38-.14-2.58-.24-3.61a23.27,23.27,0,0,0-1.4-6.28c-.15-.18-.26-.24-.34-.24-.31,0-1.57,1.11-2,10.13a84.48,84.48,0,0,0,0,8.74c.1.1.21.19.31.3.49-2.25,1.89-2.18,3.77-3.24Z"/><polygon class="cls-5" points="842.19 374.01 832.83 378.22 835.95 372.13 842.19 374.01"/><path class="cls-14" d="M842.19,373.92s.15-2.88-6.56-3.44c0,0-5.47.56-7.77,5.21C827.86,375.69,837.61,372.52,842.19,373.92Z"/><path class="cls-10" d="M838,367.74c0,.82,1.77,1.49,3.89,1.49s4.07-.67,4.07-1.49"/><path class="cls-10" d="M838.3,362c0,.77,1.6,1.39,3.58,1.39s3.83-.62,3.83-1.39"/><path class="cls-10" d="M839.11,356.74c0,.62,1.16,1.13,2.77,1.13s2.91-.51,2.91-1.13"/><path class="cls-10" d="M845.72,362.12C845,353.1,842.57,352,842,352s-3,1.11-3.75,10.13a39.61,39.61,0,0,0,.08,8.77,7.73,7.73,0,0,1,3.88,2.54c.49-2.24,1.89-2.18,3.77-3.24C846,368.39,845.91,364.4,845.72,362.12Z"/><path class="cls-12" d="M751.19,365.49c-.75-9-3.15-10.12-3.75-10.12s-3,1.1-3.75,10.12a43.44,43.44,0,0,0,0,9.12,7.32,7.32,0,0,1,3.94,2.2c.49-2.25,1.89-2.19,3.77-3.24C751.47,371.77,751.38,367.77,751.19,365.49Z"/><path class="cls-13" d="M751.42,373.56c0-1.91,0-4.25-.12-5.79-.06-1.39-.14-2.58-.24-3.62a23.27,23.27,0,0,0-1.4-6.27c-.15-.19-.26-.24-.33-.24-.32,0-1.58,1.11-2,10.13a84.28,84.28,0,0,0,0,8.73l.31.31c.49-2.25,1.89-2.19,3.77-3.24Z"/><polygon class="cls-5" points="747.66 377.39 738.3 381.6 741.42 375.51 747.66 377.39"/><path class="cls-14" d="M747.66,377.3s.15-2.89-6.56-3.45c0,0-5.47.56-7.77,5.22C733.33,379.07,743.08,375.9,747.66,377.3Z"/><path class="cls-10" d="M743.46,371.11c0,.83,1.77,1.49,3.89,1.49s4.08-.66,4.08-1.49"/><path class="cls-10" d="M743.77,365.33c0,.76,1.61,1.39,3.58,1.39s3.83-.63,3.83-1.39"/><path class="cls-10" d="M744.58,360.11c0,.63,1.16,1.14,2.77,1.14s2.91-.51,2.91-1.14"/><path class="cls-10" d="M751.19,365.49c-.75-9-3.15-10.12-3.75-10.12s-3,1.1-3.75,10.12a39.69,39.69,0,0,0,.08,8.78,7.67,7.67,0,0,1,3.88,2.54c.49-2.25,1.89-2.19,3.77-3.24C751.47,371.77,751.38,367.77,751.19,365.49Z"/><path class="cls-12" d="M722.27,380.54c-.75-9-3.15-10.13-3.75-10.13s-3,1.11-3.75,10.13a43.45,43.45,0,0,0,0,9.12,7.31,7.31,0,0,1,3.94,2.19c.48-2.24,1.89-2.18,3.77-3.23C722.55,386.82,722.46,382.82,722.27,380.54Z"/><path class="cls-13" d="M722.5,388.61c0-1.91-.06-4.25-.12-5.8-.06-1.38-.14-2.57-.24-3.61a23.18,23.18,0,0,0-1.4-6.27c-.15-.19-.27-.24-.34-.24-.31,0-1.57,1.1-2,10.12a84.46,84.46,0,0,0,0,8.74l.31.3c.48-2.24,1.89-2.18,3.77-3.23Z"/><polygon class="cls-5" points="718.74 392.44 709.38 396.64 712.5 390.55 718.74 392.44"/><path class="cls-14" d="M718.73,392.34s.16-2.88-6.55-3.44c0,0-5.47.56-7.77,5.21C704.41,394.11,714.16,391,718.73,392.34Z"/><path class="cls-10" d="M714.54,386.16c0,.82,1.77,1.49,3.89,1.49s4.07-.67,4.07-1.49"/><path class="cls-10" d="M714.85,380.38c0,.76,1.6,1.38,3.58,1.38s3.83-.62,3.83-1.38"/><path class="cls-10" d="M715.66,375.16c0,.63,1.16,1.13,2.77,1.13s2.91-.5,2.91-1.13"/><path class="cls-10" d="M722.27,380.54c-.75-9-3.15-10.13-3.75-10.13s-3,1.11-3.75,10.13a39.59,39.59,0,0,0,.08,8.77,7.8,7.8,0,0,1,3.88,2.54c.48-2.24,1.89-2.18,3.77-3.23C722.55,386.82,722.46,382.82,722.27,380.54Z"/><polyline class="cls-15" points="733.02 451.9 733.02 464.93 601.49 534.83 601.49 521.8"/><polyline class="cls-8" points="436.29 434.41 436.29 447.44 601.49 534.77 601.49 500.65"/><polygon class="cls-7" points="733.02 451.9 601.49 521.79 436.29 434.46 567.82 364.56 733.02 451.9"/><path class="cls-10" d="M733,451.87,567.82,364.56,436.35,434.43l-.06,0v13l165.2,87.33L733,464.88v-13Z"/><line class="cls-11" x1="543.43" y1="378.17" x2="705.88" y2="465.42"/><line class="cls-11" x1="517.77" y1="391.83" x2="680.22" y2="479.09"/><line class="cls-11" x1="491.75" y1="405.51" x2="654.21" y2="492.76"/><line class="cls-11" x1="465.91" y1="419.4" x2="628.36" y2="506.66"/><path class="cls-16" d="M531.3,406.5a18.93,18.93,0,0,0-5.36,9.78c-.65,3.67,0,10.16,0,10.16s.21-6,2.31-9.42S531.3,406.5,531.3,406.5Z"/><path class="cls-16" d="M517,404.28s5.22,1.94,6.69,5.33,2,15.47,2,15.47-1.68-7.71-4.55-11.83A36.29,36.29,0,0,1,517,404.28Z"/><path class="cls-16" d="M508.25,411.6s-9,8-10,13.89c-.64,3.66.2,13.89.2,13.89s.21-6,2.31-9.43S508.25,411.6,508.25,411.6Z"/><path class="cls-16" d="M487.12,416.76s8.19,1.15,9.66,4.53S498.26,438,498.26,438s-.62-10.25-4.2-13.77C491.07,421.29,487.12,416.76,487.12,416.76Z"/><path class="cls-16" d="M542.62,390.61s7.06,2.85,8.09,8.74c.64,3.66-.2,13.89-.2,13.89s-.21-6-2.31-9.43S542.62,390.61,542.62,390.61Z"/><path class="cls-16" d="M561.85,390.61s-8.19,1.16-9.66,4.54-1.48,16.72-1.48,16.72.62-10.25,4.2-13.77C557.9,395.15,561.85,390.61,561.85,390.61Z"/><path class="cls-16" d="M566.1,379.89s8.1,1.91,9.13,7.79c.64,3.67-.2,12-.2,12s-.21-6-2.31-9.43S566.1,379.89,566.1,379.89Z"/><path class="cls-16" d="M583.08,383.42s-5.3.37-6.77,3.76-1.08,11.13-1.08,11.13a14.53,14.53,0,0,1,3.9-8.53A16,16,0,0,0,583.08,383.42Z"/><path class="cls-16" d="M614,394.28s-8.75,5-9.78,10.89c-.65,3.66,0,10.16,0,10.16s.21-6,2.31-9.43S614,394.28,614,394.28Z"/><path class="cls-16" d="M587.76,390.31s12.8,1.69,14.27,5.07S604,414,604,414s-1.72-13.75-6-16.42S587.76,390.31,587.76,390.31Z"/><path class="cls-16" d="M538.29,437.46s-10-2-11.06,3.91c-.64,3.67.2,13.89.2,13.89s.21-6,2.32-9.43S538.29,437.46,538.29,437.46Z"/><path class="cls-16" d="M516.09,432.64s8.19,1.15,9.66,4.53,1.48,16.73,1.48,16.73-.62-10.25-4.2-13.78C520,437.17,516.09,432.64,516.09,432.64Z"/><path class="cls-16" d="M590.82,401.34s-9,8-10,13.89c-.64,3.67.21,13.89.21,13.89s.21-6,2.31-9.43S590.82,401.34,590.82,401.34Z"/><path class="cls-16" d="M569.69,406.5s8.19,1.15,9.67,4.53,1.47,16.73,1.47,16.73-.61-10.26-4.19-13.78C573.64,411,569.69,406.5,569.69,406.5Z"/><path class="cls-16" d="M544.08,422.74s8.1,1.92,9.13,7.8c.64,3.67-.2,12-.2,12s-.21-6-2.31-9.42S544.08,422.74,544.08,422.74Z"/><path class="cls-16" d="M563.61,423.41s-7.86,3.24-9.33,6.62-1.07,11.14-1.07,11.14-.12-6.76,3.46-10.28C559.66,427.94,563.61,423.41,563.61,423.41Z"/><path class="cls-16" d="M611.21,425.08s3.91,6.18,4.94,12.06c.64,3.67-1.77,9.73-1.77,9.73s-.22-6.05-2.32-9.43S611.21,425.08,611.21,425.08Z"/><path class="cls-16" d="M622.41,432.29l-8,14.58s0-8.95,1.25-12S622.41,432.29,622.41,432.29Z"/><path class="cls-16" d="M596.81,441s-10-2-11.06,3.91c-.64,3.66.21,13.89.21,13.89s.21-6,2.31-9.43S596.81,441,596.81,441Z"/><path class="cls-16" d="M574.61,436.15s8.19,1.15,9.66,4.54,1.48,16.72,1.48,16.72-.61-10.25-4.2-13.78C578.56,440.69,574.61,436.15,574.61,436.15Z"/><path class="cls-16" d="M645.43,413.24a7.64,7.64,0,0,0-6.52,6.42c-.64,3.67.2,13.89.2,13.89s.22-6,2.32-9.42S645.43,413.24,645.43,413.24Z"/><path class="cls-16" d="M629.17,409.43s6.79,2.65,8.26,6,1.48,16.72,1.48,16.72-.62-10.25-4.2-13.78C631.72,415.47,629.17,409.43,629.17,409.43Z"/><path class="cls-16" d="M554.25,453.82s8.1,1.91,9.13,7.8c.64,3.66-.2,12-.2,12s-.21-6-2.31-9.43S554.25,453.82,554.25,453.82Z"/><path class="cls-16" d="M572.78,445.5s-7.69,9.67-9.16,13.05-.24,13.7-.24,13.7-.12-6.76,3.46-10.29C569.83,459,572.78,445.5,572.78,445.5Z"/><path class="cls-16" d="M682.2,432.29s-4.8,7.21-5.44,10.87c-.4,2.28.81,9.9.81,9.9s.14-3.76,1.44-5.86S682.2,432.29,682.2,432.29Z"/><path class="cls-16" d="M669.91,435.66s5.38,2.89,6.29,5,1.25,11.56,1.25,11.56-1.54-8-3.72-10.21C671.86,440.08,669.91,435.66,669.91,435.66Z"/><path class="cls-16" d="M611.93,475.19s-10-.33-11.06,5.55c-.64,3.67.2,12.25.2,12.25s.22-6,2.32-9.43S611.93,475.19,611.93,475.19Z"/><path class="cls-16" d="M589.73,470.37s7.84,5.15,9.31,8.53,1.83,12.73,1.83,12.73A41,41,0,0,0,596.81,481C594.71,477.36,589.73,470.37,589.73,470.37Z"/><path class="cls-16" d="M666.52,443.27s-11,3.8-12,9.69c-.64,3.67.21,13.89.21,13.89s.21-6,2.31-9.43S666.52,443.27,666.52,443.27Z"/><path class="cls-16" d="M643.33,444.23s8.19,1.15,9.67,4.53,1.47,16.73,1.47,16.73-.61-10.26-4.19-13.78C647.28,448.76,643.33,444.23,643.33,444.23Z"/><path class="cls-16" d="M617,464.73s8.83-2.35,9.86,3.54c.64,3.67-.2,12-.2,12s-.21-6-2.31-9.42S617,464.73,617,464.73Z"/><path class="cls-16" d="M636.51,462.68s-7.12,1.7-8.59,5.08-1.07,11.14-1.07,11.14a15,15,0,0,1,4-8.53A41.08,41.08,0,0,0,636.51,462.68Z"/><polyline class="cls-17" points="546.88 348.78 546.88 361.81 415.35 431.71 415.35 418.68"/><polyline class="cls-18" points="250.15 331.29 250.15 344.32 415.35 431.65 415.35 397.53"/><polygon class="cls-19" points="546.88 348.78 415.35 418.67 250.15 331.34 381.68 261.44 546.88 348.78"/><path class="cls-10" d="M546.83,348.75,381.68,261.44,250.2,331.31l0,0v13l165.2,87.33,131.53-69.89v-13Z"/><circle class="cls-4" cx="409" cy="277.25" r="3.98"/><polygon class="cls-20" points="373.19 262.88 372.35 267.26 376.45 265.67 373.19 262.88"/><polygon class="cls-20" points="358.16 277.25 362.28 282.64 364.33 277.3 358.16 277.25"/><polygon class="cls-16" points="341.97 278.25 337.03 273.31 335.7 280.36 341.97 278.25"/><polyline class="cls-16" points="408.28 288.22 409 278.39 398.48 277.02 399.41 269.65 391.29 270.7 391.91 260.96 383.11 261.29 380.44 255.55 374.29 260.77 368.32 253.82 365.81 263.29 355.15 257.51 356.98 268.98 348.38 269.44 350.78 277.66 341.97 278.25 345.55 285.11 338.11 287.23 342.12 293.56 337.03 297.02 344.37 301.6"/><polygon class="cls-5" points="365.81 263.29 364.97 267.67 369.07 266.09 365.81 263.29"/><polygon class="cls-5" points="350.78 277.66 354.9 283.05 356.95 277.71 350.78 277.66"/><path class="cls-16" d="M387.43,257.14c.12-.07-2-8.51-2-8.51l6.58,1.1Z"/><polyline class="cls-16" points="330.25 338.63 334.65 333.56 327.86 332.84 330.07 326.26 323.01 327 323.08 321.16 316.28 323.98 312.9 318.35 308.3 324.48 303.18 321.29 301.54 327.3 295.67 325.75"/><polygon class="cls-16" points="312.64 316.27 314.73 310.57 309.3 310.57 312.64 316.27"/><polyline class="cls-16" points="490.51 323.61 494.92 318.54 488.13 317.82 490.33 311.25 483.28 311.98 483.35 306.14 476.55 308.96 473.17 303.33 468.57 309.46 463.44 306.27 461.81 312.28 455.93 310.73"/><polyline class="cls-16" points="446.43 395.85 452.68 388.66 443.05 387.64 446.18 378.31 436.18 379.35 436.28 371.08 426.64 375.07 421.84 367.1 415.32 375.77 408.06 371.26 405.74 379.78 397.41 377.58"/><polygon class="cls-16" points="501.21 321.74 503.29 316.04 497.86 316.04 501.21 321.74"/><circle class="cls-18" cx="386.93" cy="275.7" r="4.24"/><circle class="cls-21" cx="313.36" cy="332.59" r="2.04"/><circle class="cls-12" cx="385.88" cy="274.03" r="3.98"/><path class="cls-13" d="M389.86,274a4,4,0,0,0-.44-1.81c-.76,5.35-6.1,4.85-6.1,4.85a4,4,0,0,0,6.54-3Z"/><circle class="cls-10" cx="385.88" cy="274.03" r="3.98"/><circle class="cls-18" cx="369.31" cy="293.57" r="3.5"/><circle class="cls-12" cx="368.44" cy="292.53" r="3.28"/><path class="cls-13" d="M371.72,292.53a3.24,3.24,0,0,0-.36-1.48c-.63,4.41-5,4-5,4a3.28,3.28,0,0,0,5.39-2.52Z"/><circle class="cls-10" cx="368.44" cy="292.53" r="3.28"/><circle class="cls-12" cx="312.55" cy="331.92" r="2.18"/><path class="cls-13" d="M314.73,331.92a2.15,2.15,0,0,0-.24-1,3,3,0,0,1-3.34,2.65,2.18,2.18,0,0,0,3.58-1.67Z"/><circle class="cls-10" cx="312.55" cy="331.92" r="2.18"/><circle class="cls-18" cx="403.7" cy="299" r="2.04"/><circle class="cls-4" cx="402.84" cy="297.5" r="2.18"/><circle class="cls-4" cx="398.68" cy="317.46" r="4.52"/><polyline class="cls-16" points="425.05 341.62 419.5 338.24 424.73 327.03 412.02 328.27 410.78 314.08 398.08 320.31 391.88 311.91 386.87 319.81 378.71 316.46 378.16 323.79 371.72 323.67 370.37 329.61"/><polyline class="cls-16" points="504.64 364.63 499.09 361.25 504.32 350.05 491.62 351.29 490.37 337.1 477.67 343.32 471.47 334.93 466.46 342.82 458.3 339.48 457.75 346.81 451.31 346.68 449.96 352.62"/><polygon class="cls-16" points="412.38 312.65 419.83 312.93 415.45 306.23 412.38 312.65"/><circle class="cls-18" cx="392.85" cy="337.37" r="3.98"/><circle class="cls-12" cx="391.17" cy="335.24" r="3.98"/><path class="cls-13" d="M395.15,335.24a4.08,4.08,0,0,0-.43-1.8c-.76,5.35-6.11,4.85-6.11,4.85a4,4,0,0,0,6.54-3.05Z"/><circle class="cls-10" cx="391.17" cy="335.24" r="3.98"/><circle class="cls-12" cx="416.38" cy="395.22" r="3.98"/><path class="cls-13" d="M420.36,395.22a3.89,3.89,0,0,0-.44-1.8c-.76,5.35-6.1,4.85-6.1,4.85a4,4,0,0,0,6.54-3Z"/><circle class="cls-10" cx="416.38" cy="395.22" r="3.98"/><circle class="cls-12" cx="440.72" cy="364.63" r="3.98"/><path class="cls-13" d="M444.7,364.63a3.89,3.89,0,0,0-.44-1.8c-.76,5.35-6.1,4.85-6.1,4.85a4,4,0,0,0,6.54-3.05Z"/><circle class="cls-10" cx="440.72" cy="364.63" r="3.98"/><circle class="cls-12" cx="488.4" cy="359.03" r="3.98"/><path class="cls-13" d="M492.38,359a4,4,0,0,0-.43-1.8c-.76,5.35-6.11,4.85-6.11,4.85a4,4,0,0,0,6.54-3.05Z"/><circle class="cls-10" cx="488.4" cy="359.03" r="3.98"/><polyline class="cls-16" points="374.8 357.14 371.9 351.01 367.64 352.62 367.82 345.7 363.55 347.31 362.56 342 358.36 345 353.37 342.79 355.25 348.53 349.96 348.6 351.21 352.55 347.7 355.92"/><polyline class="cls-16" points="449.96 301.14 447.07 295.02 442.8 296.62 442.98 289.71 438.72 291.31 437.73 286 433.52 289.01 428.53 286.8 430.41 292.53 425.13 292.61 426.38 296.55 422.86 299.93"/><polygon class="cls-16" points="281.06 327.43 285.94 335.1 290.81 328.92 281.06 327.43"/><circle class="cls-18" cx="333.12" cy="314.89" r="3.5"/><circle class="cls-12" cx="332.25" cy="313.85" r="3.28"/><path class="cls-13" d="M335.53,313.85a3.25,3.25,0,0,0-.36-1.49c-.62,4.41-5,4-5,4a3.28,3.28,0,0,0,5.39-2.51Z"/><circle class="cls-10" cx="332.25" cy="313.85" r="3.28"/><circle class="cls-18" cx="351.85" cy="319.65" r="3.5"/><circle class="cls-12" cx="350.98" cy="318.62" r="3.28"/><path class="cls-13" d="M354.26,318.62a3.25,3.25,0,0,0-.36-1.49c-.62,4.41-5,4-5,4a3.28,3.28,0,0,0,5.39-2.51Z"/><circle class="cls-10" cx="350.98" cy="318.62" r="3.28"/><circle class="cls-18" cx="436.74" cy="308.18" r="3.5"/><circle class="cls-12" cx="435.87" cy="307.14" r="3.28"/><path class="cls-13" d="M439.15,307.14a3.2,3.2,0,0,0-.36-1.48c-.62,4.41-5,4-5,4a3.28,3.28,0,0,0,5.39-2.51Z"/><circle class="cls-10" cx="435.87" cy="307.14" r="3.28"/><circle class="cls-18" cx="476.43" cy="319.93" r="3.5"/><circle class="cls-12" cx="475.56" cy="318.89" r="3.28"/><path class="cls-13" d="M478.84,318.89a3.37,3.37,0,0,0-.35-1.49c-.63,4.41-5,4-5,4a3.28,3.28,0,0,0,5.39-2.51Z"/><circle class="cls-10" cx="475.56" cy="318.89" r="3.28"/><circle class="cls-18" cx="463.57" cy="368.06" r="8.21"/><circle class="cls-12" cx="461.52" cy="365.63" r="7.71"/><path class="cls-13" d="M469.23,365.63a7.71,7.71,0,0,0-.84-3.49c-1.47,10.36-11.82,9.39-11.83,9.39a7.72,7.72,0,0,0,12.67-5.9Z"/><circle class="cls-10" cx="461.52" cy="365.63" r="7.71"/><circle class="cls-18" cx="329.74" cy="347.51" r="8.21"/><circle class="cls-12" cx="327.69" cy="345.08" r="7.71"/><path class="cls-13" d="M335.4,345.08a7.59,7.59,0,0,0-.84-3.49C333.09,352,322.74,351,322.74,351a7.7,7.7,0,0,0,12.66-5.9Z"/><circle class="cls-10" cx="327.69" cy="345.08" r="7.71"/><circle class="cls-18" cx="402.34" cy="358.59" r="3.5"/><circle class="cls-12" cx="400.96" cy="357.01" r="3.28"/><path class="cls-13" d="M404.24,357a3.2,3.2,0,0,0-.36-1.48c-.63,4.41-5,4-5,4a3.28,3.28,0,0,0,5.39-2.51Z"/><circle class="cls-10" cx="400.96" cy="357.01" r="3.28"/><circle class="cls-18" cx="358.27" cy="359.88" r="3.5"/><circle class="cls-12" cx="356.88" cy="358.13" r="3.28"/><path class="cls-13" d="M360.16,358.13a3.24,3.24,0,0,0-.36-1.48c-.62,4.41-5,4-5,4a3.28,3.28,0,0,0,5.39-2.52Z"/><circle class="cls-10" cx="356.88" cy="358.13" r="3.28"/><polyline class="cls-22" points="373.53 590.74 348.52 590.74 149.8 491.06 193.18 470.41"/><polygon class="cls-23" points="239.9 345.57 204.2 384.12 268.66 475.88 186.35 495.8 375.77 483.44 293.45 344.24 239.9 345.57"/><polygon class="cls-23" points="426.1 440.12 372.55 492.83 372.55 590.34 479.66 536.31 479.66 438.79 426.1 440.12"/><polygon class="cls-24" points="186.35 495.8 372.55 590.34 372.55 492.77 186.35 398.23 186.35 495.8"/><polygon class="cls-2" points="186.35 398.23 372.55 492.83 426.1 440.12 239.9 345.57 186.35 398.23"/><polygon class="cls-2" points="399.75 495.66 399.75 576.62 458.27 547.1 458.27 465.34 399.75 495.66"/><polygon class="cls-5" points="453.56 544.4 399.75 571.55 399.75 495.66 453.56 467.78 453.56 544.4"/><polygon class="cls-5" points="479.66 438.79 426.1 440.12 239.9 345.57 293.45 344.24 479.66 438.79"/><polyline class="cls-25" points="451.29 424.86 397.73 426.19 346.17 476.94"/><polyline class="cls-25" points="425.06 411.49 371.51 412.82 319.95 463.57"/><polyline class="cls-25" points="398.84 398.12 345.29 399.45 293.72 450.2"/><polyline class="cls-25" points="373.76 385.45 320.21 386.78 268.64 437.53"/><polyline class="cls-25" points="347.54 372.08 293.99 373.41 242.42 424.16"/><polyline class="cls-25" points="321.32 358.71 267.76 360.04 216.2 410.79"/><polygon class="cls-26" points="316.26 438.2 357.33 459.12 378.5 438.28 337.43 417.38 316.26 438.2"/><polyline class="cls-27" points="373.4 441.6 338.6 423.6 322.45 439.48"/><line class="cls-27" x1="337.7" y1="418.59" x2="338.6" y2="423.6"/><line class="cls-25" x1="342.33" y1="483.44" x2="342.33" y2="572"/><line class="cls-25" x1="316.82" y1="469.77" x2="316.82" y2="558.33"/><line class="cls-25" x1="291.3" y1="456.1" x2="291.3" y2="544.66"/><line class="cls-25" x1="266.5" y1="443.89" x2="266.5" y2="532.45"/><line class="cls-25" x1="240.98" y1="430.21" x2="240.98" y2="518.77"/><line class="cls-25" x1="215.46" y1="416.54" x2="215.46" y2="505.1"/><polyline class="cls-22" points="861.86 677.47 836.18 677.47 632.22 575.15 676.75 553.96"/><polygon class="cls-24" points="761.24 415.53 830.88 484.07 830.88 660.87 691.61 590.6 691.61 413.8 761.24 415.53"/><polygon class="cls-24" points="761.24 416.38 830.46 484.5 862.12 555.66 862.12 677.47 660.37 575.68 660.37 453.87 688.15 414.56 761.24 416.38"/><polygon class="cls-23" points="1067.85 572.93 862.12 677.47 862.12 554.63 1067.85 450.09 1067.85 572.93"/><polygon class="cls-2" points="1036.61 379.46 830.88 484.07 761.24 415.53 966.98 310.99 1036.61 379.46"/><polygon class="cls-2" points="1036.61 379.46 830.88 484.07 862.12 554.63 1067.85 450.09 1036.61 379.46"/><polygon class="cls-2" points="795.5 549.09 795.5 643.02 719.41 604.63 719.41 509.66 795.5 549.09"/><polygon class="cls-5" points="725.53 601.13 795.5 636.43 795.5 549.66 725.53 513.41 725.53 601.13"/><polygon class="cls-5" points="691.61 413.8 761.24 415.53 966.98 310.99 897.34 309.26 691.61 413.8"/><polyline class="cls-25" points="728.49 395.69 798.13 397.42 865.18 463.41"/><polyline class="cls-25" points="762.59 378.3 832.23 380.03 899.28 446.02"/><polyline class="cls-25" points="796.69 360.92 866.33 362.65 933.38 428.64"/><polyline class="cls-25" points="830.94 344.44 900.57 346.17 967.63 412.16"/><polyline class="cls-25" points="865.03 327.05 934.67 328.78 1001.72 394.78"/><polygon class="cls-26" points="904.07 413.03 850.67 440.23 823.14 413.14 876.54 385.96 904.07 413.03"/><polyline class="cls-27" points="828.27 417.85 875.02 394.05 896.87 415.53"/><line class="cls-27" x1="876.19" y1="387.54" x2="875.02" y2="394.05"/><line class="cls-25" x1="900.2" y1="540.25" x2="900.2" y2="652.96"/><line class="cls-25" x1="933.38" y1="522.47" x2="933.38" y2="635.18"/><line class="cls-25" x1="966.56" y1="504.69" x2="966.56" y2="617.4"/><line class="cls-25" x1="999.63" y1="487.61" x2="999.63" y2="600.32"/><line class="cls-25" x1="1032.81" y1="469.83" x2="1032.81" y2="582.54"/><line class="cls-25" x1="897.2" y1="531.25" x2="868.9" y2="469.97"/><line class="cls-25" x1="930.38" y1="513.47" x2="902.08" y2="452.19"/><line class="cls-25" x1="963.56" y1="495.69" x2="935.26" y2="434.41"/><line class="cls-25" x1="996.74" y1="478.96" x2="968.45" y2="417.68"/><line class="cls-25" x1="1029.92" y1="461.19" x2="1001.63" y2="399.91"/><polygon class="cls-5" points="912.24 580.5 888.16 592.73 888.16 553.33 912.24 541.1 912.24 580.5"/><polyline class="cls-27" points="889.18 587.25 908.04 577.56 908.04 544.1"/><polygon class="cls-5" points="978.6 545.24 954.52 557.47 954.52 518.07 978.6 505.84 978.6 545.24"/><polyline class="cls-27" points="955.54 551.98 974.41 542.29 974.41 508.83"/><polygon class="cls-5" points="1044.85 510.24 1020.77 522.47 1020.77 483.07 1044.85 470.84 1044.85 510.24"/><polyline class="cls-27" points="1021.79 516.98 1040.65 507.29 1040.65 473.83"/><path class="cls-22" d="M531.88,613.64l-62.72,36.08a1.3,1.3,0,0,0,0,2.26l156.15,89.73c.4.23,14.81.23,15.22,0l49.05-28c.88-.51.88-9.82,0-10.32L533.2,613.64A1.3,1.3,0,0,0,531.88,613.64Z"/><path class="cls-23" d="M623.71,713.71l25.23-2.35a11.81,11.81,0,0,0,5.32-1.67L690.4,688.8c.88-.5,3.37-2.4,3.93-4.59l2.66-8a4.09,4.09,0,0,0-2.63-5.18,4.15,4.15,0,0,0-5.23,2.6L685.92,679l-37,22.54-27.47,4.11L467.74,617.79a4.15,4.15,0,0,0-5.65,1.49,4.08,4.08,0,0,0,1.51,5.61l152.89,87.42C618.63,713.71,623.58,713.72,623.71,713.71Z"/><path class="cls-28" d="M566.55,570s-55.82-24.62-57.15-25.27-2.65,0-4,.65-3.64,2-3.64,2l50.87,32.13"/><polygon class="cls-29" points="501.79 547.44 575.14 589.92 527.72 617.04 454.69 574.03 501.79 547.44"/><polygon class="cls-30" points="557.4 600.07 527.72 617.04 476.48 587.42 506.15 570.45 557.4 600.07"/><polygon class="cls-15" points="634.03 673.11 626.46 692.83 620.71 696.11 602.41 682.21 513.3 631.3 519.45 612.05 519.45 612.02 634.03 673.11"/><path class="cls-8" d="M445.57,585.68l2.13-6.36a4.57,4.57,0,0,1,.71-1.3,4.24,4.24,0,0,1,1.31-1.14l5-2.85,0,0,64.74,38v0l-12,6.89h0l6.08,12.16,108.84,62.73,7,13.92s-9.62-.32-14.1-2.89L493.84,635.4C481.05,628,465.1,619,463.54,616.89L446,588.58A3.12,3.12,0,0,1,445.57,585.68Z"/><path class="cls-10" d="M629.31,707.75s-9.62-.32-14.1-2.89L493.84,635.4C481.05,628,465.1,619,463.54,616.89L446,588.58a3.12,3.12,0,0,1-.47-2.9l2.13-6.36a4.57,4.57,0,0,1,.71-1.3,4.24,4.24,0,0,1,1.31-1.14l5-2.85,0,0"/><path class="cls-28" d="M445.57,585.68l2.13-6.36a4.57,4.57,0,0,1,.71-1.3,4.24,4.24,0,0,1,1.31-1.14l5-2.85,0,0,64.74,38v0l-12,6.89h0l-62-31.9A3.15,3.15,0,0,1,445.57,585.68Z"/><polygon class="cls-5" points="606.2 592.72 643.58 614.06 583.24 648.8 567.13 615.03 606.2 592.72"/><polygon class="cls-5" points="583.24 648.8 519.45 611.75 519.45 594.85 538.34 592.5 576.39 620.32 583.24 648.8"/><polygon class="cls-5" points="513.49 631.43 507.41 618.94 519.45 612.05 513.49 631.43"/><path class="cls-10" d="M519.45,612.05l-5.65,16.71c-.52,1.52-1,1.21-.31,2.67l5.64,18.08"/><polyline class="cls-23" points="618.63 681.39 583.3 648.88 629.68 675.19 618.63 681.39"/><path class="cls-30" d="M643.65,614.17c-.65-.28-16.23-9.51-16.23-9.51s-7.3-10.29-9.2-12.78-3.84-4.42-8.74-6.53-4.08-3.44-4.08-3.44,11.81,5.89,14.16,7.42S643.65,614.17,643.65,614.17Z"/><polygon class="cls-28" points="566.55 567.78 581.14 567.81 618.45 588.73 571.03 615.84 534.01 595.07 519.45 594.85 566.55 567.78"/><path class="cls-2" d="M583.54,648.8c-.57-.33-13.57-8.15-13.57-8.15s-3-19.06-4-22.67-10.3-10.58-10.3-10.58,12.47,5.89,14.35,7.86S583.54,648.8,583.54,648.8Z"/><path class="cls-28" d="M646.77,673.11l-14.83,1.8c-1.47.18-8,.68-11.73-2.35l-36.9-23.68L644,614.17l43,24.37a4.65,4.65,0,0,1,2.09,5.59l-2.13,6Z"/><path class="cls-5" d="M659.83,682.27l14.1-8c6-3.4,13.71-5.6,13.71,1.62l1.05,3.67L648.94,702.3v-.73C648.94,694.35,653.84,685.67,659.83,682.27Z"/><path class="cls-29" d="M618.63,681.39s11.21,3.84,13.61,3.76,14.53,1.25,14.53,1.25l40.21-23,2.35-6.62,1.07-6.38,2.35,4.46v13a48,48,0,0,1-.47,6.7l-2.81,7.92a1.13,1.13,0,0,1-2.18-.23c-.58-4.73-3.58-7.18-7.53-6.45-6.59,4.06-15.52,9.49-22.15,13.35a27.21,27.21,0,0,0-6,13.87,3,3,0,0,1-1.79,2.46,3.55,3.55,0,0,1-1.41.46l-16.47,1.87a8.57,8.57,0,0,1-9.57-8.47Z"/><path class="cls-23" d="M620.63,672.9l9,2.29,12.92-1.57a3.7,3.7,0,0,1,4.17,3.66v5.86a3.7,3.7,0,0,1-3.26,3.66l-12.59,1.53a3.7,3.7,0,0,1-2.31-.46l-10-6.48"/><path class="cls-23" d="M687,650.25v8.92a.74.74,0,0,0,1.43.24l2-5.52a.67.67,0,0,0,0-.24v-8.92c0-.82-1-2.84-1-1.42L687,650A.6.6,0,0,0,687,650.25Z"/><polygon class="cls-5" points="686.98 650.12 686.98 661.01 686.98 663.42 646.77 686.4 646.77 682.7 646.77 673.11 686.98 650.12"/><line class="cls-10" x1="689.33" y1="676.99" x2="689.33" y2="667.9"/><line class="cls-10" x1="649.12" y1="701.57" x2="649.12" y2="690.18"/><path class="cls-31" d="M515.1,568.57a3,3,0,0,0-1.34,2.57,1,1,0,0,0,.49.84h0c.5.26,35.5,18.51,38.38,20.08,2.26,1.23,2.12,1.54,2.13,1.79,0,1-.11,3.91-.06,4.09h0a.92.92,0,0,0,.61.89,3.43,3.43,0,0,0,3-.18c.56-.35.55-1,.54-1.61s-.1-2.54-.14-3.39a4.73,4.73,0,0,0-.72-2.33,9.48,9.48,0,0,0-3.64-3c-2.93-1.59-35.92-19-38-19.88h0A1.17,1.17,0,0,0,515.1,568.57Z"/><path class="cls-10" d="M553.38,591.62s1,.29,1.33,2"/><path class="cls-31" d="M544.28,552.4a3,3,0,0,0-1.35,2.56,1,1,0,0,0,.49.84h0c.5.26,35.5,18.51,38.39,20.09,2.26,1.23,2.11,1.53,2.13,1.78,0,1-.11,3.91-.07,4.09h0a.92.92,0,0,0,.61.9,3.49,3.49,0,0,0,3-.18c.57-.35.55-1,.55-1.61s-.1-2.55-.15-3.4a4.68,4.68,0,0,0-.71-2.32,9.46,9.46,0,0,0-3.64-3c-2.93-1.6-35.92-19-38-19.89h0A1.16,1.16,0,0,0,544.28,552.4Z"/><path class="cls-10" d="M582.56,575.45s1,.29,1.33,1.95"/><polygon class="cls-8" points="658.48 645.63 608.56 636.86 608.56 638.13 646.05 661.57 658.48 645.63"/><path class="cls-9" d="M626.73,626.35a18.63,18.63,0,0,1,9.37.73c4.81,1.73,33.65,15.9,33.65,15.9l-22,13.23s-28-15.8-31.7-17.29a36.49,36.49,0,0,0-7.46-2.06Z"/><path class="cls-5" d="M646.05,661.57V660c0-2.4,1.44-5.18,3.19-6.18l18.58-10.6c1.75-1,3.19.15,3.19,2.55v1.61Z"/><path class="cls-10" d="M626.73,626.35a18.63,18.63,0,0,1,9.37.73c4.81,1.73,33.65,15.9,33.65,15.9h0a2.84,2.84,0,0,1,1.27,2.74v1.61l-25,14.23-37.49-23.44v-1.27Z"/><path class="cls-31" d="M445.49,568.08a3,3,0,0,0-1.35,2.57,1,1,0,0,0,.49.84h0c.5.25,7.49,4.15,10.38,5.72,2.25,1.23,2.11,1.53,2.12,1.79.05,1-.1,3.91-.06,4.09h0a.92.92,0,0,0,.61.89,3.43,3.43,0,0,0,3-.18c.57-.35.55-1,.55-1.61s-.1-2.54-.15-3.4a4.62,4.62,0,0,0-.72-2.32,9.39,9.39,0,0,0-3.64-3c-2.92-1.6-7.9-4.61-10-5.53h0A1.18,1.18,0,0,0,445.49,568.08Z"/><path class="cls-10" d="M455.75,576.77s1,.29,1.34,2"/><path class="cls-31" d="M501.88,535.42a3,3,0,0,0-1.35,2.57,1,1,0,0,0,.49.84h0c.5.26,7.49,4.15,10.38,5.72,2.26,1.23,2.11,1.54,2.13,1.79.05,1-.11,3.91-.07,4.09h0c0,.33.16.66.62.89a3.43,3.43,0,0,0,3-.18c.56-.35.54-1,.54-1.61s-.1-2.54-.15-3.39a4.72,4.72,0,0,0-.71-2.33,9.64,9.64,0,0,0-3.64-3c-2.93-1.59-7.91-4.61-10-5.52h0A1.15,1.15,0,0,0,501.88,535.42Z"/><path class="cls-10" d="M512.15,544.11s1,.29,1.33,2"/><path class="cls-31" d="M584.24,683.82a3.27,3.27,0,0,1,1.33-2.58c.43-.25.61-.16,1,.07L618.29,699h0c1.64.05,7.65.22,12.05.25,2.78,0,3.31-.52,3.31-.52a2.34,2.34,0,0,0,.05-.64v-1.29c0-1.11.92-1.67,2-1.64a1.77,1.77,0,0,1,1.94,1.73v1.2a4.53,4.53,0,0,1-1.23,3.44c-1.16,1.13-3.05,1.66-6,1.66h-.18c-5.17,0-11.15-.23-11.22-.22a6.73,6.73,0,0,1-3.71-1l-30.46-17.11C584.47,684.6,584.24,684.44,584.24,683.82Z"/><path class="cls-10" d="M635,696.73a3.17,3.17,0,0,1-1.36,2"/><path class="cls-10" d="M618.3,699a8.61,8.61,0,0,1-4.41-1.28"/><path class="cls-31" d="M692.89,665.53a12.87,12.87,0,0,0,1.6.09c0-.73-.12-1.84-.21-2.71S694.1,661,694,660a3.52,3.52,0,0,0-1.29-2.15v-3l-1.14-2c2.11,1,5.65,3.19,5.85,6.45.06,1,.15,1.88.23,2.77.33,3.37.53,5.4-1.31,6.37a4.22,4.22,0,0,1-1.33.4,10.13,10.13,0,0,1-2.93,0c-.9-.12-.8-1.15-.74-2.1A1.21,1.21,0,0,1,692.89,665.53Z"/><path class="cls-10" d="M695.42,663.41s.36,1.69-.93,2.21"/><polyline class="cls-22" points="350.69 602.96 224.87 537.82 121.77 586.94 245.28 649.69 262.07 648.62 350.69 602.74"/><path class="cls-32" d="M216.2,482.59h0l.1.06.31.16,120.77,62.52h0c-8-4-19-3.32-31.15,3L185.05,485.55C197.18,479.28,208.18,478.61,216.2,482.59Z"/><path class="cls-33" d="M185.05,485.56h0L306.23,548.3h0c-18.42,9.54-34.18,29.31-40.81,49.26L144.24,534.82C150.87,514.86,166.63,495.09,185.05,485.56Z"/><path class="cls-34" d="M140.89,554.15a61.3,61.3,0,0,1,3.35-19.33l121.18,62.74a61.3,61.3,0,0,0-3.35,19.33v31.56L140.89,585.71h0Z"/><g class="cls-35"><path class="cls-36" d="M262.07,616.89c-.08-25.22,19.7-55.93,44.16-68.59h0c24.48-12.67,44.38-2.51,44.46,22.71v35l-88.62,42.4Z"/></g><path class="cls-10" d="M140.89,585.71V554.15c-.08-25.22,19.69-55.93,44.16-68.59,12.12-6.28,23.13-6.95,31.15-3h0l.1.06.31.16,120.77,62.52h0c-8-4-19-3.32-31.15,3C281.77,561,262,591.67,262.07,616.89v31.56Z"/><path class="cls-10" d="M241.88,638V606.43c-.08-25.21,19.69-55.92,44.16-68.59h0c12.12-6.28,23.13-7,31.15-3"/><path class="cls-10" d="M221.68,627.54V596c-.08-25.22,19.69-55.93,44.16-68.6h0c12.12-6.27,23.13-7,31.16-3"/><path class="cls-10" d="M201.48,617.08V585.52c-.08-25.22,19.7-55.93,44.16-68.59h0c12.13-6.28,23.13-6.95,31.16-3"/><path class="cls-10" d="M181.28,606.62V575.06c-.08-25.22,19.7-55.92,44.16-68.59h0c12.13-6.28,23.13-7,31.16-3"/><path class="cls-10" d="M161.09,596.17V564.61c-.08-25.22,19.69-55.93,44.16-68.6h0c12.12-6.28,23.13-6.95,31.15-3"/></g></svg>