<svg id="Layer_1" data-name="Layer 1" xmlns="http://www.w3.org/2000/svg" viewBox="0 0 1200 900"><defs><style>.cls-1,.cls-2{fill:#ffc75a;}.cls-14,.cls-15,.cls-16,.cls-18,.cls-19,.cls-2,.cls-24,.cls-6,.cls-7{stroke:#1f1000;}.cls-13,.cls-14,.cls-15,.cls-16,.cls-18,.cls-19,.cls-2,.cls-22,.cls-23,.cls-24,.cls-6,.cls-7{stroke-linecap:round;stroke-linejoin:round;stroke-width:0.5px;}.cls-3{fill:#4c2800;}.cls-24,.cls-4{fill:#793f00;}.cls-5{fill:#d26e00;}.cls-22,.cls-23,.cls-6{fill:none;}.cls-7{fill:#fc8c57;}.cls-8{fill:#fa5000;}.cls-18,.cls-9{fill:#ffaa05;}.cls-10{fill:#c53f00;}.cls-11{fill:#902e00;}.cls-12,.cls-14{fill:#fdc7ad;}.cls-13,.cls-15{fill:#fda982;}.cls-13{stroke:#fda982;}.cls-16{fill:#ff5a87;}.cls-17{fill:#a55700;}.cls-19{fill:#da872b;}.cls-20{fill:#007303;}.cls-21{fill:#2bd130;}.cls-22{stroke:#007303;}.cls-23{stroke:#2bd130;}</style></defs><title>illo_stock-option_desktop-mobile</title><rect class="cls-1" width="1200" height="900"/><path class="cls-2" d="M935,304.73c-6.07-.22-12.05-1.42-18.08-2.11s-12.26-.84-18.06,1-11.14,5.84-13.29,11.52c6.77,7.67,17.47,11.71,27.46,9.5S932.07,314.53,935,304.73Z"/><path class="cls-3" d="M413.36,350.39a59.67,59.67,0,0,0,62.34,40.38,88,88,0,0,0-3.8-40.46c19.71,10.05,42.33,16.23,64.43,15.17,0-12.21-7.34-25.13-17.86-31.33a55.33,55.33,0,0,0,36.22-7.67,49.59,49.59,0,0,0,17,33.43c17.68-19,25-47.32,17.19-72,12.76,8.81,29.35,14.16,44.37,10.31,2,12,8.63,24.95,17.76,33a54.23,54.23,0,0,0,33.24,13.48c4.12-18.25,1.88-39-7.06-55.46a78.7,78.7,0,0,0-41.58-35.85l-79.13-45.67-82.38,20.37-29.49,112.4Z"/><path class="cls-4" d="M882,314l-18.78,1.19-17-10a3.58,3.58,0,0,0-1.3-.44l-.69-.09-24.69-3.22a7.8,7.8,0,0,0-1.87,0,7.25,7.25,0,1,0,1.87,14.38l23.83-3.11,17,9.66.35.2a2.89,2.89,0,0,0,2.24.26l19.63-5.74A1.59,1.59,0,0,0,882,314Z"/><path class="cls-5" d="M862.94,317l20.52-2.23A1.58,1.58,0,0,0,882,314l-18.78,1.19-17-10a3.58,3.58,0,0,0-1.3-.44l-.69-.09-24.69-3.22a7.8,7.8,0,0,0-1.87,0,7.26,7.26,0,0,0-5.6,4.05l33.3,1.6Z"/><path class="cls-6" d="M882,314l-18.78,1.19-17-10a3.58,3.58,0,0,0-1.3-.44l-.69-.09-24.69-3.22a7.8,7.8,0,0,0-1.87,0,7.25,7.25,0,1,0,1.87,14.38l23.83-3.11,17,9.66.35.2a2.89,2.89,0,0,0,2.24.26l19.63-5.74A1.59,1.59,0,0,0,882,314Z"/><path class="cls-7" d="M580.64,595.93l26.41-23.79L637.68,510a18.62,18.62,0,0,1,22.62-9.43h0l-31.48,94-33.28,19.59Z"/><path class="cls-7" d="M710.31,509.45l-18.84,51.77-36.32,20.47,34.31-64a17.39,17.39,0,0,1,20.85-8.27Z"/><path class="cls-7" d="M575.84,591.92l6.63-13.11a21.47,21.47,0,0,0,1.87-14.07l-7.13-34.26-25.35,56.23Z"/><path class="cls-8" d="M699.29,447.74C689.05,429,669.1,416.48,648.35,417a86.47,86.47,0,0,0-9,.7A58.93,58.93,0,0,0,584,398.44c-23.94,4.75-44.58,24.61-52.82,48.86s-4.44,52,8.5,73.18,34.43,35.91,57.9,41.65c20.09,4.91,41.9,3.42,61.08-5.48a86.31,86.31,0,0,0,43.54-45.78C710.2,490.5,709.54,466.44,699.29,447.74Z"/><path class="cls-9" d="M612.53,411.44l-20.1,4.74,18.79,7.35L596.9,433.68l20.93,1.53-4.93,16L631.5,442l10.7,19.37,6-18.62,17.3,9.82-3.91-18.93,17.58,6.57-12-13.89,10.66-1.13A54.13,54.13,0,0,0,648.35,417a86.47,86.47,0,0,0-9,.7,57.74,57.74,0,0,0-19.88-14.88H598.76Z"/><path class="cls-10" d="M705.25,492.29c-3.23,10.34-7.93,20.91-16.79,27.14-8.53,6-19.69,7-30,5.62-15.45-2.12-30.67-9.81-39.15-22.91-11.18-17.27-9.37-41.06-22.2-57.15-9.51-11.93-25.46-17.12-40.71-17.59a75.9,75.9,0,0,0-15.85,1.15,77.51,77.51,0,0,0-9.4,18.75c-8.23,24.25-4.44,52,8.5,73.18s34.43,35.91,57.9,41.65c20.09,4.91,41.9,3.42,61.08-5.48a86.31,86.31,0,0,0,43.54-45.78A79.36,79.36,0,0,0,707.6,484Q706.54,488.15,705.25,492.29Z"/><path class="cls-11" d="M693.2,517.91c-1,.78-2.11,1.51-3.19,2.23-1.58,1.6-3.2,3.16-4.91,4.62a85.18,85.18,0,0,1-35.16,18,91.55,91.55,0,0,1-39.87.87,79.81,79.81,0,0,1-35.68-17c-10.67-9-18.11-21-22.73-34.08a98.5,98.5,0,0,1-5.12-42.73,84.36,84.36,0,0,1,2.14-11.93,52.48,52.48,0,0,0-9.9,15.8c-3,7.21-5.32,15-5.62,22.8-.86,23,6.28,37.62,8.67,41.53,12.56,20.6,33.42,34.87,56.2,40.44,19.5,4.76,40.68,3.32,59.3-5.32a84.27,84.27,0,0,0,39.39-38.07C695.58,516.08,694.41,517,693.2,517.91Z"/><path class="cls-11" d="M584.79,512.45,556.5,540.6a95.32,95.32,0,0,0,26.06,16.51C576.91,539.56,584.79,512.45,584.79,512.45Z"/><path class="cls-6" d="M699.29,447.74C689.05,429,669.1,416.48,648.35,417a86.47,86.47,0,0,0-9,.7A58.93,58.93,0,0,0,584,398.44c-23.94,4.75-44.58,24.61-52.82,48.86s-4.44,52,8.5,73.18,34.43,35.91,57.9,41.65c20.09,4.91,41.9,3.42,61.08-5.48a86.31,86.31,0,0,0,43.54-45.78C710.2,490.5,709.54,466.44,699.29,447.74Z"/><path class="cls-12" d="M566.74,580.87l22.47,17.51,12.62-4.18a73.29,73.29,0,0,1,16.5-3.44l14.29-1.29,11.55-6.91a108.22,108.22,0,0,1,13.94-7l12.59-5.25,38.93-39.19a18.27,18.27,0,0,1,24.18-1.55h0l-43.88,60.74a20,20,0,0,1-4.77,4.67l-50.92,35.13a44,44,0,0,0-6.71,5.7l-10.14,10.57a43.61,43.61,0,0,1-12.59,9.12L505,703.43l-39,61.81L366.55,731.9l96.25-92.38,13.59-27.72a82.45,82.45,0,0,1,21.55-27.28L529,558.89a35.2,35.2,0,0,0,10.1-13.63l24-57.89a11.26,11.26,0,0,1,14-6.36h0a14,14,0,0,1,9.5,14.7l-1.1,11a80.45,80.45,0,0,1-3.14,15.58l-13,42.34-6.93,41.76"/><polygon class="cls-13" points="566.42 582.79 562.83 604.41 584.79 596.93 566.42 582.79"/><line class="cls-14" x1="569.44" y1="564.62" x2="562.51" y2="606.38"/><line class="cls-6" x1="561.72" y1="504.02" x2="576.37" y2="508.93"/><path class="cls-15" d="M577.17,481h0a14,14,0,0,1,8.11,7.08l.82-3.53s-6.85-10.77-18.21-5.11l-1.1,3.27A11.22,11.22,0,0,1,577.17,481Z"/><path class="cls-16" d="M562.7,497.76l.47,3.57,13.72,4.59,2.79-2.23a9.07,9.07,0,0,0,3.13-5l2.47-10.62a14,14,0,0,0-8.11-7.08h0a11.22,11.22,0,0,0-10.38,1.71l-3.7,11A9.09,9.09,0,0,0,562.7,497.76Z"/><path class="cls-13" d="M731.17,528l-47.69,58.31a6.3,6.3,0,0,1-1.78,1.51l-50.13,28.7a80.5,80.5,0,0,0-9.37,6.27l-15.33,11.92A80.21,80.21,0,0,1,587.1,646l-83,32.76c-8.21,3.24-13.31,7.47-20.74,15.66l-54.19,58.49L466,765.24l39-61.81,99.83-47.95a43.61,43.61,0,0,0,12.59-9.12l10.14-10.57a44,44,0,0,1,6.71-5.7L685.16,595a20,20,0,0,0,4.77-4.67l43.88-60.74h0a18,18,0,0,0-2.49-1.62Z"/><path class="cls-6" d="M566.74,580.87l22.47,17.51,12.62-4.18a73.29,73.29,0,0,1,16.5-3.44l14.29-1.29,11.55-6.91a108.22,108.22,0,0,1,13.94-7l12.59-5.25,38.93-39.19a18.27,18.27,0,0,1,24.18-1.55h0l-43.88,60.74a20,20,0,0,1-4.77,4.67l-50.92,35.13a44,44,0,0,0-6.71,5.7l-10.14,10.57a43.61,43.61,0,0,1-12.59,9.12L505,703.43l-39,61.81L366.55,731.9l96.25-92.38,13.59-27.72a82.45,82.45,0,0,1,21.55-27.28L529,558.89a35.2,35.2,0,0,0,10.1-13.63l24-57.89a11.26,11.26,0,0,1,14-6.36h0a14,14,0,0,1,9.5,14.7l-1.1,11a80.45,80.45,0,0,1-3.14,15.58l-13,42.34-6.93,41.76"/><path class="cls-6" d="M627,419.64a23.51,23.51,0,0,1,14.51,17.23"/><path class="cls-6" d="M627.39,428.84a39.59,39.59,0,0,1,24.75-.32"/><polygon class="cls-9" points="655.15 463.07 652.14 470.88 658.57 480.42 660.3 470.04 655.15 463.07"/><polygon class="cls-9" points="677.27 451.35 678.67 454.79 682.48 455.9 681.55 453.11 677.27 451.35"/><path class="cls-9" d="M624.62,465.48l-3.07,4.66s1.21,5.58,1.53,5.3,3.21-6,3.21-6Z"/><polygon class="cls-9" points="592.43 408.09 588.25 405.67 583.5 407.44 587.23 410.32 592.43 408.09"/><polygon class="cls-9" points="582.39 426.14 586.1 424.93 589.09 426.14 586.1 427.77 582.39 426.14"/><path class="cls-17" d="M851.19,338l-.46-.56-28-33.68a6.5,6.5,0,0,0-6.93-2l-.7.22-72.44,22.76-50.15-46a11.51,11.51,0,0,0-9.13-2.94l-.34,0-40.74,4.85-.15-.1-65.42-40a14.86,14.86,0,0,0-14.08-.58S450.06,298.77,440,304.17l-65.87-17.83a5.79,5.79,0,0,0-1.41-.39c-7.26-1-15.14,12.41-17.6,30s1.44,32.65,8.71,33.67l62.78,11.49,8.92,5.14a4.91,4.91,0,0,0,4.81.06l20.11-11a4.92,4.92,0,0,0,2.41-3.15l1.77-7.34c9.42-6.39,98.45-68,105.39-73l2.5,1.39s67.4,36.61,73.16,39.41l0,33.48v.85a6.9,6.9,0,0,0,.94,3.48c1.68,2.91,8.7,14.4,10.49,17.26l.09.14a6.59,6.59,0,0,0,4.2,2.94c6.09,1.32,24.11,4.94,27,5.5l-.43.5s-5.47,6.57-6.43,7.76l-39.55,16.13-.18.08a4,4,0,0,0-2.29,2.52l-6.2,20.21a23.59,23.59,0,0,1,3.39,3.46c1-.09,2-.14,3-.15L647,407.9l39.17-15.26.07,0a4.61,4.61,0,0,0,1.69-1.2c1.32-1.21,15.73-15.1,15.73-15.1a5.58,5.58,0,0,0,1.5-5.51,5.94,5.94,0,0,0-4.24-4.08l-.22-.06c-6-1.63-28.28-7.29-33.39-8.52-1.25-2.09-6.36-10.45-7.67-12.54l9.74-39.24a9.71,9.71,0,0,0,.1-4.29l11.26-1.34,52.72,43,.51.42a9.53,9.53,0,0,0,9.49,1.47L816,317.05l27.89,25.46,2.58,13.09a2.47,2.47,0,0,0,2.52,2,2.57,2.57,0,0,0,2.36-2.52l.58-15.08A3,3,0,0,0,851.19,338Z"/><path class="cls-5" d="M649.46,284.58l5.34,2.57L682,283.66a8.77,8.77,0,0,1,6.84,2l48.75,42.12a7.08,7.08,0,0,0,6.75,1.4l74-23.37,33.53,35.68.06-1.55a3,3,0,0,0-.69-2l-.46-.56-28-33.68a6.5,6.5,0,0,0-6.93-2l-.7.22-72.44,22.76-50.15-46a11.51,11.51,0,0,0-9.13-2.94l-.34,0-40.74,4.85h0Z"/><path class="cls-4" d="M814.54,312.27l-71,25.65a7.19,7.19,0,0,1-7.13-1.31l-48.51-41.72a6.85,6.85,0,0,0-5.51-1.58l-4.27.66a7.67,7.67,0,0,1-5.59-1.33L653.7,279.26l-11.27,1.43,7,3.89,14.46,6.95-.62,3.6,6.19,6.94,11.26-1.34,52.72,43,.51.42a9.53,9.53,0,0,0,9.49,1.47L816,317.05l27.89,25.46,2.58,13.09-.83-12.92a5,5,0,0,0-1.39-3.18l-24.77-26.07A4.6,4.6,0,0,0,814.54,312.27Z"/><path class="cls-4" d="M685.36,389.39l-38.45,15.06a4,4,0,0,0-2.4,2.76l-4.73,19.49L647,407.9l39.17-15.26.07,0a4.61,4.61,0,0,0,1.69-1.2c1.32-1.21,15.73-15.1,15.73-15.1a5.47,5.47,0,0,0,.82-1h-3.58a3.87,3.87,0,0,0-2.76,1.16Z"/><path class="cls-4" d="M664.08,367.09a6,6,0,0,1-3.74-2.72l-10-16.32a6,6,0,0,1-.89-3.14V314a7.65,7.65,0,0,0-3.88-6.66l-73.67-41.76a5.59,5.59,0,0,0-5.67.1L444.62,340.49a20,20,0,0,1-15,2.47l-75.23-17.19c-.09,13.05,3.58,23,9.44,23.84l62.78,11.49,8.92,5.14a4.91,4.91,0,0,0,4.81.06l20.11-11a4.92,4.92,0,0,0,2.41-3.15l1.77-7.34c9.42-6.39,98.45-68,105.39-73l2.5,1.39s67.4,36.61,73.16,39.41l0,33.48v.85a6.9,6.9,0,0,0,.94,3.48c1.68,2.91,8.7,14.4,10.49,17.26l.09.14a6.59,6.59,0,0,0,4.2,2.94c6.09,1.32,24.11,4.94,27,5.5l2.18-2.8Z"/><path class="cls-5" d="M663.92,291.53l-14.46-6.95-7.17-4h0l-.15-.1-65.42-40a14.86,14.86,0,0,0-14.08-.58S450.06,298.77,440,304.17l-65.87-17.83a5.79,5.79,0,0,0-1.41-.39c-4.53-.63-9.29,4.35-12.84,12.45l73.15,21.33a17.7,17.7,0,0,0,13.83-1.66l118.74-68.56a8.53,8.53,0,0,1,8.56,0l85.64,50.24a6.62,6.62,0,0,1,3.19,6.75l-6,38a5.78,5.78,0,0,0,.94,4.16L665.05,359a6.27,6.27,0,0,0,3.64,2.53l36.39,9.05a6,6,0,0,0-4.15-3.83l-.22-.06c-6-1.63-28.28-7.29-33.39-8.52-1.25-2.09-6.36-10.45-7.67-12.54l9.74-39.24a9.71,9.71,0,0,0,.1-4.29l-6.19-6.94Z"/><polyline class="cls-6" points="663.92 291.53 663.3 295.13 669.49 302.07"/><polyline class="cls-6" points="642.12 280.52 649.46 284.58 646.78 286.05 630.86 277.2"/><ellipse class="cls-18" cx="656.69" cy="288.06" rx="2.71" ry="8.02" transform="translate(112.71 755.29) rotate(-64.34)"/><path class="cls-19" d="M460.67,349.63,455,348.7a5.59,5.59,0,0,0-3.73.67l-14.16,8.11a4.33,4.33,0,0,0-1.94,2.31l-1,2.72a3.09,3.09,0,0,0,1.37,3.73,4.91,4.91,0,0,0,4.81.06l20.11-11a4.92,4.92,0,0,0,2.41-3.15L464,347.4A3,3,0,0,1,460.67,349.63Z"/><path class="cls-6" d="M431.79,364.06l-12.71-7.89a13.73,13.73,0,0,0-4.49-1.77l-43.51-8.74"/><path class="cls-6" d="M464.67,344.78l.76-3.15a7.4,7.4,0,0,1,2.94-4.31l18.39-12.86"/><path class="cls-6" d="M851.19,338l-.46-.56-28-33.68a6.5,6.5,0,0,0-6.93-2l-.7.22-72.44,22.76-50.15-46a11.51,11.51,0,0,0-9.13-2.94l-.34,0-40.74,4.85-.15-.1-65.42-40a14.86,14.86,0,0,0-14.08-.58S450.06,298.77,440,304.17l-65.87-17.83a5.79,5.79,0,0,0-1.41-.39c-7.26-1-15.14,12.41-17.6,30s1.44,32.65,8.71,33.67l62.78,11.49,8.92,5.14a4.91,4.91,0,0,0,4.81.06l20.11-11a4.92,4.92,0,0,0,2.41-3.15l1.77-7.34c9.42-6.39,98.45-68,105.39-73l2.5,1.39s67.4,36.61,73.16,39.41l0,33.48v.85a6.9,6.9,0,0,0,.94,3.48c1.68,2.91,8.7,14.4,10.49,17.26l.09.14a6.59,6.59,0,0,0,4.2,2.94c6.09,1.32,24.11,4.94,27,5.5l-.43.5s-5.47,6.57-6.43,7.76l-39.55,16.13-.18.08a4,4,0,0,0-2.29,2.52l-6.2,20.21a23.59,23.59,0,0,1,3.39,3.46c1-.09,2-.14,3-.15L647,407.9l39.17-15.26.07,0a4.61,4.61,0,0,0,1.69-1.2c1.32-1.21,15.73-15.1,15.73-15.1a5.58,5.58,0,0,0,1.5-5.51,5.94,5.94,0,0,0-4.24-4.08l-.22-.06c-6-1.63-28.28-7.29-33.39-8.52-1.25-2.09-6.36-10.45-7.67-12.54l9.74-39.24a9.71,9.71,0,0,0,.1-4.29l11.26-1.34,52.72,43,.51.42a9.53,9.53,0,0,0,9.49,1.47L816,317.05l27.89,25.46,2.58,13.09a2.47,2.47,0,0,0,2.52,2,2.57,2.57,0,0,0,2.36-2.52l.58-15.08A3,3,0,0,0,851.19,338Z"/><polyline class="cls-19" points="700.99 374.97 708.9 385.2 706.39 386.6 699.29 380.53"/><path class="cls-20" d="M765.43,409.68c-13.15-18.58-35.16-25-58.62-25,0,0,45.53,36.17,65.25,98C780.6,458.39,783.24,434.86,765.43,409.68Z"/><path class="cls-21" d="M706.81,384.7c-7.89,12.71-8.14,29.27-2.7,43.21s16,25.44,28.18,34.15,26,14.87,39.77,20.61C752.34,420.87,706.81,384.7,706.81,384.7Z"/><path class="cls-22" d="M712.4,426.32C715.9,415.06,717,394,717,394"/><path class="cls-22" d="M723.45,441.05s5.62-20.64,4.77-35.05"/><path class="cls-22" d="M734.83,452.61s6.11-18.1,6.11-30.62"/><path class="cls-22" d="M747.32,461.41s3.9-14,4.35-23.28"/><path class="cls-23" d="M717,394s24.8,6,33.19,6.9"/><path class="cls-23" d="M728.22,406s17.49,7,33.88,7.49"/><path class="cls-23" d="M740.94,422s14.57,4.86,27.58,4.33"/><path class="cls-23" d="M751.67,438.13s14.16,2.44,20.39,2.08"/><path class="cls-6" d="M765.43,409.68c-13.15-18.58-35.16-25-58.62-25-7.89,12.71-8.14,29.27-2.7,43.21s16,25.44,28.18,34.15,26,14.87,39.77,20.61C780.6,458.39,783.24,434.86,765.43,409.68Z"/><path class="cls-6" d="M554.8,271.62l-3.64-1.11a4.86,4.86,0,0,1-3.45-4.65v-1.49"/><path class="cls-24" d="M550.15,284l-4.24,8.81-8.46-1.53a5.33,5.33,0,0,0-4.34,1.14l-1,.86L515,305.67"/><ellipse class="cls-19" cx="549.79" cy="282.05" rx="11.58" ry="7.01" transform="translate(57.5 655.52) rotate(-64.34)"/><line class="cls-24" x1="702.2" y1="313.86" x2="714.69" y2="324.09"/><line class="cls-24" x1="583.13" y1="251.35" x2="589.27" y2="254.88"/><line class="cls-24" x1="468.9" y1="296.93" x2="495.69" y2="282.05"/><path class="cls-6" d="M519.13,268.65l2-1.3"/><path class="cls-6" d="M395.41,301l2.23.74"/><path class="cls-6" d="M405.83,322.6l2.79.56"/><path class="cls-6" d="M367.5,323.16l1.86.37"/><path class="cls-6" d="M468.9,310.32l1.12-.74"/><path class="cls-6" d="M486,307.9l1.48-.74"/><path class="cls-6" d="M452.53,340.09l2-1.12"/><path class="cls-6" d="M595.61,269.37l2,1.12"/><path class="cls-6" d="M616.81,287.44l1.67.93"/><path class="cls-6" d="M630.75,289.5l3.17,1.3"/><path class="cls-6" d="M653.27,314.41v1.12"/><path class="cls-6" d="M656.43,326.32l-.37,1.12"/><path class="cls-6" d="M673.36,365.21l1.86.55"/><path class="cls-6" d="M661.46,395.53l1.86-.56"/><path class="cls-6" d="M688.25,289.48l1.49,1.12"/><path class="cls-6" d="M706.32,296.34l2.41,2.43"/><path class="cls-6" d="M732.34,328.55l1.49,1.12"/><path class="cls-6" d="M766,325.58l2.24-.75"/><path class="cls-6" d="M784.06,314.41l2.23-.74"/><path class="cls-6" d="M667.32,358.14a6.94,6.94,0,0,0-5.41,1.72"/><path class="cls-6" d="M654.94,342.89a6.43,6.43,0,0,1,4.78,2.86,23,23,0,0,0-2.16-5.85"/><path class="cls-6" d="M743.12,334.13a18.66,18.66,0,0,0-.54-9.35,7.34,7.34,0,0,1,3.31,5"/><path class="cls-6" d="M816.25,316.69l.14-2.23"/><line class="cls-6" x1="570.06" y1="271.74" x2="571.91" y2="265.62"/><path class="cls-1" d="M437.64,272.88c20.45,28.06,55.34,45,90,43.61,6.39-33.85-9.72-69.48-38.32-88.67,15.76,1.73,32,0,46.64-6,12.29,17.67,30,32,50.33,39.14,1.63-7.82,2.93-16.5.93-24.22,24.29,19.7,58.21,27.79,88.08,18.53l-35.18-73.76L419.69,206.6Z"/><path class="cls-6" d="M437.64,272.88c20.45,28.06,55.34,45,90,43.61,6.39-33.85-9.72-69.48-38.32-88.67,15.76,1.73,32,0,46.64-6,12.29,17.67,30,32,50.33,39.14,1.63-7.82,2.93-16.5.93-24.22,24.29,19.7,58.21,27.79,88.08,18.53"/><path class="cls-2" d="M749.3,309.56a59.39,59.39,0,0,0,51.59,24.17c2.43-17.22-5.75-35.4-19.73-45.75"/><path class="cls-3" d="M778.68,365.21s.92,47.44,63.43,40.46C842.11,405.67,839.91,351.81,778.68,365.21Z"/><path class="cls-6" d="M630.65,390.66l-1.11-5.58"/><path class="cls-6" d="M669.72,407.41l7.81-1.68"/><path class="cls-6" d="M893,339.31l4.46,2.23"/><path class="cls-6" d="M879,368.34l3.91,8.37"/><path class="cls-6" d="M537.44,375.59l5,2.23"/><path class="cls-6" d="M603.3,332.06v7.81"/></svg>